# Rounded cube 1x1x1 radius 0.15
v 0.43660254 -0.43660254 0.43660254
v 0.451186778 -0.451186778 0.394971901
v 0.456066017 -0.456066017 0.333333333
v 0.456066017 -0.456066017 0.25
v 0.456066017 -0.456066017 0.166666667
v 0.456066017 -0.456066017 0.0833333333
v 0.456066017 -0.456066017 0
v 0.456066017 -0.456066017 -0.0833333333
v 0.456066017 -0.456066017 -0.166666667
v 0.456066017 -0.456066017 -0.25
v 0.456066017 -0.456066017 -0.333333333
v 0.451186778 -0.451186778 -0.394971901
v 0.43660254 -0.43660254 -0.43660254
v 0.451186778 -0.394971901 0.451186778
v 0.476997317 -0.406443252 0.406443252
v 0.487071732 -0.41092077 0.333333333
v 0.487071732 -0.41092077 0.25
v 0.487071732 -0.41092077 0.166666667
v 0.487071732 -0.41092077 0.0833333333
v 0.487071732 -0.41092077 0
v 0.487071732 -0.41092077 -0.0833333333
v 0.487071732 -0.41092077 -0.166666667
v 0.487071732 -0.41092077 -0.25
v 0.487071732 -0.41092077 -0.333333333
v 0.476997317 -0.406443252 -0.406443252
v 0.451186778 -0.394971901 -0.451186778
v 0.456066017 -0.333333333 0.456066017
v 0.487071732 -0.333333333 0.41092077
v 0.5 -0.333333333 0.333333333
v 0.5 -0.333333333 0.25
v 0.5 -0.333333333 0.166666667
v 0.5 -0.333333333 0.0833333333
v 0.5 -0.333333333 0
v 0.5 -0.333333333 -0.0833333333
v 0.5 -0.333333333 -0.166666667
v 0.5 -0.333333333 -0.25
v 0.5 -0.333333333 -0.333333333
v 0.487071732 -0.333333333 -0.41092077
v 0.456066017 -0.333333333 -0.456066017
v 0.456066017 -0.25 0.456066017
v 0.487071732 -0.25 0.41092077
v 0.5 -0.25 0.333333333
v 0.5 -0.25 0.25
v 0.5 -0.25 0.166666667
v 0.5 -0.25 0.0833333333
v 0.5 -0.25 0
v 0.5 -0.25 -0.0833333333
v 0.5 -0.25 -0.166666667
v 0.5 -0.25 -0.25
v 0.5 -0.25 -0.333333333
v 0.487071732 -0.25 -0.41092077
v 0.456066017 -0.25 -0.456066017
v 0.456066017 -0.166666667 0.456066017
v 0.487071732 -0.166666667 0.41092077
v 0.5 -0.166666667 0.333333333
v 0.5 -0.166666667 0.25
v 0.5 -0.166666667 0.166666667
v 0.5 -0.166666667 0.0833333333
v 0.5 -0.166666667 0
v 0.5 -0.166666667 -0.0833333333
v 0.5 -0.166666667 -0.166666667
v 0.5 -0.166666667 -0.25
v 0.5 -0.166666667 -0.333333333
v 0.487071732 -0.166666667 -0.41092077
v 0.456066017 -0.166666667 -0.456066017
v 0.456066017 -0.0833333333 0.456066017
v 0.487071732 -0.0833333333 0.41092077
v 0.5 -0.0833333333 0.333333333
v 0.5 -0.0833333333 0.25
v 0.5 -0.0833333333 0.166666667
v 0.5 -0.0833333333 0.0833333333
v 0.5 -0.0833333333 0
v 0.5 -0.0833333333 -0.0833333333
v 0.5 -0.0833333333 -0.166666667
v 0.5 -0.0833333333 -0.25
v 0.5 -0.0833333333 -0.333333333
v 0.487071732 -0.0833333333 -0.41092077
v 0.456066017 -0.0833333333 -0.456066017
v 0.456066017 0 0.456066017
v 0.487071732 0 0.41092077
v 0.5 0 0.333333333
v 0.5 0 0.25
v 0.5 0 0.166666667
v 0.5 0 0.0833333333
v 0.5 0 0
v 0.5 0 -0.0833333333
v 0.5 0 -0.166666667
v 0.5 0 -0.25
v 0.5 0 -0.333333333
v 0.487071732 0 -0.41092077
v 0.456066017 0 -0.456066017
v 0.456066017 0.0833333333 0.456066017
v 0.487071732 0.0833333333 0.41092077
v 0.5 0.0833333333 0.333333333
v 0.5 0.0833333333 0.25
v 0.5 0.0833333333 0.166666667
v 0.5 0.0833333333 0.0833333333
v 0.5 0.0833333333 0
v 0.5 0.0833333333 -0.0833333333
v 0.5 0.0833333333 -0.166666667
v 0.5 0.0833333333 -0.25
v 0.5 0.0833333333 -0.333333333
v 0.487071732 0.0833333333 -0.41092077
v 0.456066017 0.0833333333 -0.456066017
v 0.456066017 0.166666667 0.456066017
v 0.487071732 0.166666667 0.41092077
v 0.5 0.166666667 0.333333333
v 0.5 0.166666667 0.25
v 0.5 0.166666667 0.166666667
v 0.5 0.166666667 0.0833333333
v 0.5 0.166666667 0
v 0.5 0.166666667 -0.0833333333
v 0.5 0.166666667 -0.166666667
v 0.5 0.166666667 -0.25
v 0.5 0.166666667 -0.333333333
v 0.487071732 0.166666667 -0.41092077
v 0.456066017 0.166666667 -0.456066017
v 0.456066017 0.25 0.456066017
v 0.487071732 0.25 0.41092077
v 0.5 0.25 0.333333333
v 0.5 0.25 0.25
v 0.5 0.25 0.166666667
v 0.5 0.25 0.0833333333
v 0.5 0.25 0
v 0.5 0.25 -0.0833333333
v 0.5 0.25 -0.166666667
v 0.5 0.25 -0.25
v 0.5 0.25 -0.333333333
v 0.487071732 0.25 -0.41092077
v 0.456066017 0.25 -0.456066017
v 0.456066017 0.333333333 0.456066017
v 0.487071732 0.333333333 0.41092077
v 0.5 0.333333333 0.333333333
v 0.5 0.333333333 0.25
v 0.5 0.333333333 0.166666667
v 0.5 0.333333333 0.0833333333
v 0.5 0.333333333 0
v 0.5 0.333333333 -0.0833333333
v 0.5 0.333333333 -0.166666667
v 0.5 0.333333333 -0.25
v 0.5 0.333333333 -0.333333333
v 0.487071732 0.333333333 -0.41092077
v 0.456066017 0.333333333 -0.456066017
v 0.451186778 0.394971901 0.451186778
v 0.476997317 0.406443252 0.406443252
v 0.487071732 0.41092077 0.333333333
v 0.487071732 0.41092077 0.25
v 0.487071732 0.41092077 0.166666667
v 0.487071732 0.41092077 0.0833333333
v 0.487071732 0.41092077 0
v 0.487071732 0.41092077 -0.0833333333
v 0.487071732 0.41092077 -0.166666667
v 0.487071732 0.41092077 -0.25
v 0.487071732 0.41092077 -0.333333333
v 0.476997317 0.406443252 -0.406443252
v 0.451186778 0.394971901 -0.451186778
v 0.43660254 0.43660254 0.43660254
v 0.451186778 0.451186778 0.394971901
v 0.456066017 0.456066017 0.333333333
v 0.456066017 0.456066017 0.25
v 0.456066017 0.456066017 0.166666667
v 0.456066017 0.456066017 0.0833333333
v 0.456066017 0.456066017 0
v 0.456066017 0.456066017 -0.0833333333
v 0.456066017 0.456066017 -0.166666667
v 0.456066017 0.456066017 -0.25
v 0.456066017 0.456066017 -0.333333333
v 0.451186778 0.451186778 -0.394971901
v 0.43660254 0.43660254 -0.43660254
v -0.43660254 -0.43660254 -0.43660254
v -0.451186778 -0.451186778 -0.394971901
v -0.456066017 -0.456066017 -0.333333333
v -0.456066017 -0.456066017 -0.25
v -0.456066017 -0.456066017 -0.166666667
v -0.456066017 -0.456066017 -0.0833333333
v -0.456066017 -0.456066017 0
v -0.456066017 -0.456066017 0.0833333333
v -0.456066017 -0.456066017 0.166666667
v -0.456066017 -0.456066017 0.25
v -0.456066017 -0.456066017 0.333333333
v -0.451186778 -0.451186778 0.394971901
v -0.43660254 -0.43660254 0.43660254
v -0.451186778 -0.394971901 -0.451186778
v -0.476997317 -0.406443252 -0.406443252
v -0.487071732 -0.41092077 -0.333333333
v -0.487071732 -0.41092077 -0.25
v -0.487071732 -0.41092077 -0.166666667
v -0.487071732 -0.41092077 -0.0833333333
v -0.487071732 -0.41092077 0
v -0.487071732 -0.41092077 0.0833333333
v -0.487071732 -0.41092077 0.166666667
v -0.487071732 -0.41092077 0.25
v -0.487071732 -0.41092077 0.333333333
v -0.476997317 -0.406443252 0.406443252
v -0.451186778 -0.394971901 0.451186778
v -0.456066017 -0.333333333 -0.456066017
v -0.487071732 -0.333333333 -0.41092077
v -0.5 -0.333333333 -0.333333333
v -0.5 -0.333333333 -0.25
v -0.5 -0.333333333 -0.166666667
v -0.5 -0.333333333 -0.0833333333
v -0.5 -0.333333333 0
v -0.5 -0.333333333 0.0833333333
v -0.5 -0.333333333 0.166666667
v -0.5 -0.333333333 0.25
v -0.5 -0.333333333 0.333333333
v -0.487071732 -0.333333333 0.41092077
v -0.456066017 -0.333333333 0.456066017
v -0.456066017 -0.25 -0.456066017
v -0.487071732 -0.25 -0.41092077
v -0.5 -0.25 -0.333333333
v -0.5 -0.25 -0.25
v -0.5 -0.25 -0.166666667
v -0.5 -0.25 -0.0833333333
v -0.5 -0.25 0
v -0.5 -0.25 0.0833333333
v -0.5 -0.25 0.166666667
v -0.5 -0.25 0.25
v -0.5 -0.25 0.333333333
v -0.487071732 -0.25 0.41092077
v -0.456066017 -0.25 0.456066017
v -0.456066017 -0.166666667 -0.456066017
v -0.487071732 -0.166666667 -0.41092077
v -0.5 -0.166666667 -0.333333333
v -0.5 -0.166666667 -0.25
v -0.5 -0.166666667 -0.166666667
v -0.5 -0.166666667 -0.0833333333
v -0.5 -0.166666667 0
v -0.5 -0.166666667 0.0833333333
v -0.5 -0.166666667 0.166666667
v -0.5 -0.166666667 0.25
v -0.5 -0.166666667 0.333333333
v -0.487071732 -0.166666667 0.41092077
v -0.456066017 -0.166666667 0.456066017
v -0.456066017 -0.0833333333 -0.456066017
v -0.487071732 -0.0833333333 -0.41092077
v -0.5 -0.0833333333 -0.333333333
v -0.5 -0.0833333333 -0.25
v -0.5 -0.0833333333 -0.166666667
v -0.5 -0.0833333333 -0.0833333333
v -0.5 -0.0833333333 0
v -0.5 -0.0833333333 0.0833333333
v -0.5 -0.0833333333 0.166666667
v -0.5 -0.0833333333 0.25
v -0.5 -0.0833333333 0.333333333
v -0.487071732 -0.0833333333 0.41092077
v -0.456066017 -0.0833333333 0.456066017
v -0.456066017 0 -0.456066017
v -0.487071732 0 -0.41092077
v -0.5 0 -0.333333333
v -0.5 0 -0.25
v -0.5 0 -0.166666667
v -0.5 0 -0.0833333333
v -0.5 0 0
v -0.5 0 0.0833333333
v -0.5 0 0.166666667
v -0.5 0 0.25
v -0.5 0 0.333333333
v -0.487071732 0 0.41092077
v -0.456066017 0 0.456066017
v -0.456066017 0.0833333333 -0.456066017
v -0.487071732 0.0833333333 -0.41092077
v -0.5 0.0833333333 -0.333333333
v -0.5 0.0833333333 -0.25
v -0.5 0.0833333333 -0.166666667
v -0.5 0.0833333333 -0.0833333333
v -0.5 0.0833333333 0
v -0.5 0.0833333333 0.0833333333
v -0.5 0.0833333333 0.166666667
v -0.5 0.0833333333 0.25
v -0.5 0.0833333333 0.333333333
v -0.487071732 0.0833333333 0.41092077
v -0.456066017 0.0833333333 0.456066017
v -0.456066017 0.166666667 -0.456066017
v -0.487071732 0.166666667 -0.41092077
v -0.5 0.166666667 -0.333333333
v -0.5 0.166666667 -0.25
v -0.5 0.166666667 -0.166666667
v -0.5 0.166666667 -0.0833333333
v -0.5 0.166666667 0
v -0.5 0.166666667 0.0833333333
v -0.5 0.166666667 0.166666667
v -0.5 0.166666667 0.25
v -0.5 0.166666667 0.333333333
v -0.487071732 0.166666667 0.41092077
v -0.456066017 0.166666667 0.456066017
v -0.456066017 0.25 -0.456066017
v -0.487071732 0.25 -0.41092077
v -0.5 0.25 -0.333333333
v -0.5 0.25 -0.25
v -0.5 0.25 -0.166666667
v -0.5 0.25 -0.0833333333
v -0.5 0.25 0
v -0.5 0.25 0.0833333333
v -0.5 0.25 0.166666667
v -0.5 0.25 0.25
v -0.5 0.25 0.333333333
v -0.487071732 0.25 0.41092077
v -0.456066017 0.25 0.456066017
v -0.456066017 0.333333333 -0.456066017
v -0.487071732 0.333333333 -0.41092077
v -0.5 0.333333333 -0.333333333
v -0.5 0.333333333 -0.25
v -0.5 0.333333333 -0.166666667
v -0.5 0.333333333 -0.0833333333
v -0.5 0.333333333 0
v -0.5 0.333333333 0.0833333333
v -0.5 0.333333333 0.166666667
v -0.5 0.333333333 0.25
v -0.5 0.333333333 0.333333333
v -0.487071732 0.333333333 0.41092077
v -0.456066017 0.333333333 0.456066017
v -0.451186778 0.394971901 -0.451186778
v -0.476997317 0.406443252 -0.406443252
v -0.487071732 0.41092077 -0.333333333
v -0.487071732 0.41092077 -0.25
v -0.487071732 0.41092077 -0.166666667
v -0.487071732 0.41092077 -0.0833333333
v -0.487071732 0.41092077 0
v -0.487071732 0.41092077 0.0833333333
v -0.487071732 0.41092077 0.166666667
v -0.487071732 0.41092077 0.25
v -0.487071732 0.41092077 0.333333333
v -0.476997317 0.406443252 0.406443252
v -0.451186778 0.394971901 0.451186778
v -0.43660254 0.43660254 -0.43660254
v -0.451186778 0.451186778 -0.394971901
v -0.456066017 0.456066017 -0.333333333
v -0.456066017 0.456066017 -0.25
v -0.456066017 0.456066017 -0.166666667
v -0.456066017 0.456066017 -0.0833333333
v -0.456066017 0.456066017 0
v -0.456066017 0.456066017 0.0833333333
v -0.456066017 0.456066017 0.166666667
v -0.456066017 0.456066017 0.25
v -0.456066017 0.456066017 0.333333333
v -0.451186778 0.451186778 0.394971901
v -0.43660254 0.43660254 0.43660254
v -0.394971901 0.451186778 0.451186778
v -0.333333333 0.456066017 0.456066017
v -0.25 0.456066017 0.456066017
v -0.166666667 0.456066017 0.456066017
v -0.0833333333 0.456066017 0.456066017
v 0 0.456066017 0.456066017
v 0.0833333333 0.456066017 0.456066017
v 0.166666667 0.456066017 0.456066017
v 0.25 0.456066017 0.456066017
v 0.333333333 0.456066017 0.456066017
v 0.394971901 0.451186778 0.451186778
v -0.406443252 0.476997317 0.406443252
v -0.333333333 0.487071732 0.41092077
v -0.25 0.487071732 0.41092077
v -0.166666667 0.487071732 0.41092077
v -0.0833333333 0.487071732 0.41092077
v 0 0.487071732 0.41092077
v 0.0833333333 0.487071732 0.41092077
v 0.166666667 0.487071732 0.41092077
v 0.25 0.487071732 0.41092077
v 0.333333333 0.487071732 0.41092077
v 0.406443252 0.476997317 0.406443252
v -0.41092077 0.487071732 0.333333333
v -0.333333333 0.5 0.333333333
v -0.25 0.5 0.333333333
v -0.166666667 0.5 0.333333333
v -0.0833333333 0.5 0.333333333
v 0 0.5 0.333333333
v 0.0833333333 0.5 0.333333333
v 0.166666667 0.5 0.333333333
v 0.25 0.5 0.333333333
v 0.333333333 0.5 0.333333333
v 0.41092077 0.487071732 0.333333333
v -0.41092077 0.487071732 0.25
v -0.333333333 0.5 0.25
v -0.25 0.5 0.25
v -0.166666667 0.5 0.25
v -0.0833333333 0.5 0.25
v 0 0.5 0.25
v 0.0833333333 0.5 0.25
v 0.166666667 0.5 0.25
v 0.25 0.5 0.25
v 0.333333333 0.5 0.25
v 0.41092077 0.487071732 0.25
v -0.41092077 0.487071732 0.166666667
v -0.333333333 0.5 0.166666667
v -0.25 0.5 0.166666667
v -0.166666667 0.5 0.166666667
v -0.0833333333 0.5 0.166666667
v 0 0.5 0.166666667
v 0.0833333333 0.5 0.166666667
v 0.166666667 0.5 0.166666667
v 0.25 0.5 0.166666667
v 0.333333333 0.5 0.166666667
v 0.41092077 0.487071732 0.166666667
v -0.41092077 0.487071732 0.0833333333
v -0.333333333 0.5 0.0833333333
v -0.25 0.5 0.0833333333
v -0.166666667 0.5 0.0833333333
v -0.0833333333 0.5 0.0833333333
v 0 0.5 0.0833333333
v 0.0833333333 0.5 0.0833333333
v 0.166666667 0.5 0.0833333333
v 0.25 0.5 0.0833333333
v 0.333333333 0.5 0.0833333333
v 0.41092077 0.487071732 0.0833333333
v -0.41092077 0.487071732 0
v -0.333333333 0.5 0
v -0.25 0.5 0
v -0.166666667 0.5 0
v -0.0833333333 0.5 0
v 0 0.5 0
v 0.0833333333 0.5 0
v 0.166666667 0.5 0
v 0.25 0.5 0
v 0.333333333 0.5 0
v 0.41092077 0.487071732 0
v -0.41092077 0.487071732 -0.0833333333
v -0.333333333 0.5 -0.0833333333
v -0.25 0.5 -0.0833333333
v -0.166666667 0.5 -0.0833333333
v -0.0833333333 0.5 -0.0833333333
v 0 0.5 -0.0833333333
v 0.0833333333 0.5 -0.0833333333
v 0.166666667 0.5 -0.0833333333
v 0.25 0.5 -0.0833333333
v 0.333333333 0.5 -0.0833333333
v 0.41092077 0.487071732 -0.0833333333
v -0.41092077 0.487071732 -0.166666667
v -0.333333333 0.5 -0.166666667
v -0.25 0.5 -0.166666667
v -0.166666667 0.5 -0.166666667
v -0.0833333333 0.5 -0.166666667
v 0 0.5 -0.166666667
v 0.0833333333 0.5 -0.166666667
v 0.166666667 0.5 -0.166666667
v 0.25 0.5 -0.166666667
v 0.333333333 0.5 -0.166666667
v 0.41092077 0.487071732 -0.166666667
v -0.41092077 0.487071732 -0.25
v -0.333333333 0.5 -0.25
v -0.25 0.5 -0.25
v -0.166666667 0.5 -0.25
v -0.0833333333 0.5 -0.25
v 0 0.5 -0.25
v 0.0833333333 0.5 -0.25
v 0.166666667 0.5 -0.25
v 0.25 0.5 -0.25
v 0.333333333 0.5 -0.25
v 0.41092077 0.487071732 -0.25
v -0.41092077 0.487071732 -0.333333333
v -0.333333333 0.5 -0.333333333
v -0.25 0.5 -0.333333333
v -0.166666667 0.5 -0.333333333
v -0.0833333333 0.5 -0.333333333
v 0 0.5 -0.333333333
v 0.0833333333 0.5 -0.333333333
v 0.166666667 0.5 -0.333333333
v 0.25 0.5 -0.333333333
v 0.333333333 0.5 -0.333333333
v 0.41092077 0.487071732 -0.333333333
v -0.406443252 0.476997317 -0.406443252
v -0.333333333 0.487071732 -0.41092077
v -0.25 0.487071732 -0.41092077
v -0.166666667 0.487071732 -0.41092077
v -0.0833333333 0.487071732 -0.41092077
v 0 0.487071732 -0.41092077
v 0.0833333333 0.487071732 -0.41092077
v 0.166666667 0.487071732 -0.41092077
v 0.25 0.487071732 -0.41092077
v 0.333333333 0.487071732 -0.41092077
v 0.406443252 0.476997317 -0.406443252
v -0.394971901 0.451186778 -0.451186778
v -0.333333333 0.456066017 -0.456066017
v -0.25 0.456066017 -0.456066017
v -0.166666667 0.456066017 -0.456066017
v -0.0833333333 0.456066017 -0.456066017
v 0 0.456066017 -0.456066017
v 0.0833333333 0.456066017 -0.456066017
v 0.166666667 0.456066017 -0.456066017
v 0.25 0.456066017 -0.456066017
v 0.333333333 0.456066017 -0.456066017
v 0.394971901 0.451186778 -0.451186778
v -0.394971901 -0.451186778 -0.451186778
v -0.333333333 -0.456066017 -0.456066017
v -0.25 -0.456066017 -0.456066017
v -0.166666667 -0.456066017 -0.456066017
v -0.0833333333 -0.456066017 -0.456066017
v 0 -0.456066017 -0.456066017
v 0.0833333333 -0.456066017 -0.456066017
v 0.166666667 -0.456066017 -0.456066017
v 0.25 -0.456066017 -0.456066017
v 0.333333333 -0.456066017 -0.456066017
v 0.394971901 -0.451186778 -0.451186778
v -0.406443252 -0.476997317 -0.406443252
v -0.333333333 -0.487071732 -0.41092077
v -0.25 -0.487071732 -0.41092077
v -0.166666667 -0.487071732 -0.41092077
v -0.0833333333 -0.487071732 -0.41092077
v 0 -0.487071732 -0.41092077
v 0.0833333333 -0.487071732 -0.41092077
v 0.166666667 -0.487071732 -0.41092077
v 0.25 -0.487071732 -0.41092077
v 0.333333333 -0.487071732 -0.41092077
v 0.406443252 -0.476997317 -0.406443252
v -0.41092077 -0.487071732 -0.333333333
v -0.333333333 -0.5 -0.333333333
v -0.25 -0.5 -0.333333333
v -0.166666667 -0.5 -0.333333333
v -0.0833333333 -0.5 -0.333333333
v 0 -0.5 -0.333333333
v 0.0833333333 -0.5 -0.333333333
v 0.166666667 -0.5 -0.333333333
v 0.25 -0.5 -0.333333333
v 0.333333333 -0.5 -0.333333333
v 0.41092077 -0.487071732 -0.333333333
v -0.41092077 -0.487071732 -0.25
v -0.333333333 -0.5 -0.25
v -0.25 -0.5 -0.25
v -0.166666667 -0.5 -0.25
v -0.0833333333 -0.5 -0.25
v 0 -0.5 -0.25
v 0.0833333333 -0.5 -0.25
v 0.166666667 -0.5 -0.25
v 0.25 -0.5 -0.25
v 0.333333333 -0.5 -0.25
v 0.41092077 -0.487071732 -0.25
v -0.41092077 -0.487071732 -0.166666667
v -0.333333333 -0.5 -0.166666667
v -0.25 -0.5 -0.166666667
v -0.166666667 -0.5 -0.166666667
v -0.0833333333 -0.5 -0.166666667
v 0 -0.5 -0.166666667
v 0.0833333333 -0.5 -0.166666667
v 0.166666667 -0.5 -0.166666667
v 0.25 -0.5 -0.166666667
v 0.333333333 -0.5 -0.166666667
v 0.41092077 -0.487071732 -0.166666667
v -0.41092077 -0.487071732 -0.0833333333
v -0.333333333 -0.5 -0.0833333333
v -0.25 -0.5 -0.0833333333
v -0.166666667 -0.5 -0.0833333333
v -0.0833333333 -0.5 -0.0833333333
v 0 -0.5 -0.0833333333
v 0.0833333333 -0.5 -0.0833333333
v 0.166666667 -0.5 -0.0833333333
v 0.25 -0.5 -0.0833333333
v 0.333333333 -0.5 -0.0833333333
v 0.41092077 -0.487071732 -0.0833333333
v -0.41092077 -0.487071732 0
v -0.333333333 -0.5 0
v -0.25 -0.5 0
v -0.166666667 -0.5 0
v -0.0833333333 -0.5 0
v 0 -0.5 0
v 0.0833333333 -0.5 0
v 0.166666667 -0.5 0
v 0.25 -0.5 0
v 0.333333333 -0.5 0
v 0.41092077 -0.487071732 0
v -0.41092077 -0.487071732 0.0833333333
v -0.333333333 -0.5 0.0833333333
v -0.25 -0.5 0.0833333333
v -0.166666667 -0.5 0.0833333333
v -0.0833333333 -0.5 0.0833333333
v 0 -0.5 0.0833333333
v 0.0833333333 -0.5 0.0833333333
v 0.166666667 -0.5 0.0833333333
v 0.25 -0.5 0.0833333333
v 0.333333333 -0.5 0.0833333333
v 0.41092077 -0.487071732 0.0833333333
v -0.41092077 -0.487071732 0.166666667
v -0.333333333 -0.5 0.166666667
v -0.25 -0.5 0.166666667
v -0.166666667 -0.5 0.166666667
v -0.0833333333 -0.5 0.166666667
v 0 -0.5 0.166666667
v 0.0833333333 -0.5 0.166666667
v 0.166666667 -0.5 0.166666667
v 0.25 -0.5 0.166666667
v 0.333333333 -0.5 0.166666667
v 0.41092077 -0.487071732 0.166666667
v -0.41092077 -0.487071732 0.25
v -0.333333333 -0.5 0.25
v -0.25 -0.5 0.25
v -0.166666667 -0.5 0.25
v -0.0833333333 -0.5 0.25
v 0 -0.5 0.25
v 0.0833333333 -0.5 0.25
v 0.166666667 -0.5 0.25
v 0.25 -0.5 0.25
v 0.333333333 -0.5 0.25
v 0.41092077 -0.487071732 0.25
v -0.41092077 -0.487071732 0.333333333
v -0.333333333 -0.5 0.333333333
v -0.25 -0.5 0.333333333
v -0.166666667 -0.5 0.333333333
v -0.0833333333 -0.5 0.333333333
v 0 -0.5 0.333333333
v 0.0833333333 -0.5 0.333333333
v 0.166666667 -0.5 0.333333333
v 0.25 -0.5 0.333333333
v 0.333333333 -0.5 0.333333333
v 0.41092077 -0.487071732 0.333333333
v -0.406443252 -0.476997317 0.406443252
v -0.333333333 -0.487071732 0.41092077
v -0.25 -0.487071732 0.41092077
v -0.166666667 -0.487071732 0.41092077
v -0.0833333333 -0.487071732 0.41092077
v 0 -0.487071732 0.41092077
v 0.0833333333 -0.487071732 0.41092077
v 0.166666667 -0.487071732 0.41092077
v 0.25 -0.487071732 0.41092077
v 0.333333333 -0.487071732 0.41092077
v 0.406443252 -0.476997317 0.406443252
v -0.394971901 -0.451186778 0.451186778
v -0.333333333 -0.456066017 0.456066017
v -0.25 -0.456066017 0.456066017
v -0.166666667 -0.456066017 0.456066017
v -0.0833333333 -0.456066017 0.456066017
v 0 -0.456066017 0.456066017
v 0.0833333333 -0.456066017 0.456066017
v 0.166666667 -0.456066017 0.456066017
v 0.25 -0.456066017 0.456066017
v 0.333333333 -0.456066017 0.456066017
v 0.394971901 -0.451186778 0.451186778
v -0.406443252 -0.406443252 0.476997317
v -0.333333333 -0.41092077 0.487071732
v -0.25 -0.41092077 0.487071732
v -0.166666667 -0.41092077 0.487071732
v -0.0833333333 -0.41092077 0.487071732
v 0 -0.41092077 0.487071732
v 0.0833333333 -0.41092077 0.487071732
v 0.166666667 -0.41092077 0.487071732
v 0.25 -0.41092077 0.487071732
v 0.333333333 -0.41092077 0.487071732
v 0.406443252 -0.406443252 0.476997317
v -0.41092077 -0.333333333 0.487071732
v -0.333333333 -0.333333333 0.5
v -0.25 -0.333333333 0.5
v -0.166666667 -0.333333333 0.5
v -0.0833333333 -0.333333333 0.5
v 0 -0.333333333 0.5
v 0.0833333333 -0.333333333 0.5
v 0.166666667 -0.333333333 0.5
v 0.25 -0.333333333 0.5
v 0.333333333 -0.333333333 0.5
v 0.41092077 -0.333333333 0.487071732
v -0.41092077 -0.25 0.487071732
v -0.333333333 -0.25 0.5
v -0.25 -0.25 0.5
v -0.166666667 -0.25 0.5
v -0.0833333333 -0.25 0.5
v 0 -0.25 0.5
v 0.0833333333 -0.25 0.5
v 0.166666667 -0.25 0.5
v 0.25 -0.25 0.5
v 0.333333333 -0.25 0.5
v 0.41092077 -0.25 0.487071732
v -0.41092077 -0.166666667 0.487071732
v -0.333333333 -0.166666667 0.5
v -0.25 -0.166666667 0.5
v -0.166666667 -0.166666667 0.5
v -0.0833333333 -0.166666667 0.5
v 0 -0.166666667 0.5
v 0.0833333333 -0.166666667 0.5
v 0.166666667 -0.166666667 0.5
v 0.25 -0.166666667 0.5
v 0.333333333 -0.166666667 0.5
v 0.41092077 -0.166666667 0.487071732
v -0.41092077 -0.0833333333 0.487071732
v -0.333333333 -0.0833333333 0.5
v -0.25 -0.0833333333 0.5
v -0.166666667 -0.0833333333 0.5
v -0.0833333333 -0.0833333333 0.5
v 0 -0.0833333333 0.5
v 0.0833333333 -0.0833333333 0.5
v 0.166666667 -0.0833333333 0.5
v 0.25 -0.0833333333 0.5
v 0.333333333 -0.0833333333 0.5
v 0.41092077 -0.0833333333 0.487071732
v -0.41092077 0 0.487071732
v -0.333333333 0 0.5
v -0.25 0 0.5
v -0.166666667 0 0.5
v -0.0833333333 0 0.5
v 0 0 0.5
v 0.0833333333 0 0.5
v 0.166666667 0 0.5
v 0.25 0 0.5
v 0.333333333 0 0.5
v 0.41092077 0 0.487071732
v -0.41092077 0.0833333333 0.487071732
v -0.333333333 0.0833333333 0.5
v -0.25 0.0833333333 0.5
v -0.166666667 0.0833333333 0.5
v -0.0833333333 0.0833333333 0.5
v 0 0.0833333333 0.5
v 0.0833333333 0.0833333333 0.5
v 0.166666667 0.0833333333 0.5
v 0.25 0.0833333333 0.5
v 0.333333333 0.0833333333 0.5
v 0.41092077 0.0833333333 0.487071732
v -0.41092077 0.166666667 0.487071732
v -0.333333333 0.166666667 0.5
v -0.25 0.166666667 0.5
v -0.166666667 0.166666667 0.5
v -0.0833333333 0.166666667 0.5
v 0 0.166666667 0.5
v 0.0833333333 0.166666667 0.5
v 0.166666667 0.166666667 0.5
v 0.25 0.166666667 0.5
v 0.333333333 0.166666667 0.5
v 0.41092077 0.166666667 0.487071732
v -0.41092077 0.25 0.487071732
v -0.333333333 0.25 0.5
v -0.25 0.25 0.5
v -0.166666667 0.25 0.5
v -0.0833333333 0.25 0.5
v 0 0.25 0.5
v 0.0833333333 0.25 0.5
v 0.166666667 0.25 0.5
v 0.25 0.25 0.5
v 0.333333333 0.25 0.5
v 0.41092077 0.25 0.487071732
v -0.41092077 0.333333333 0.487071732
v -0.333333333 0.333333333 0.5
v -0.25 0.333333333 0.5
v -0.166666667 0.333333333 0.5
v -0.0833333333 0.333333333 0.5
v 0 0.333333333 0.5
v 0.0833333333 0.333333333 0.5
v 0.166666667 0.333333333 0.5
v 0.25 0.333333333 0.5
v 0.333333333 0.333333333 0.5
v 0.41092077 0.333333333 0.487071732
v -0.406443252 0.406443252 0.476997317
v -0.333333333 0.41092077 0.487071732
v -0.25 0.41092077 0.487071732
v -0.166666667 0.41092077 0.487071732
v -0.0833333333 0.41092077 0.487071732
v 0 0.41092077 0.487071732
v 0.0833333333 0.41092077 0.487071732
v 0.166666667 0.41092077 0.487071732
v 0.25 0.41092077 0.487071732
v 0.333333333 0.41092077 0.487071732
v 0.406443252 0.406443252 0.476997317
v 0.406443252 -0.406443252 -0.476997317
v 0.333333333 -0.41092077 -0.487071732
v 0.25 -0.41092077 -0.487071732
v 0.166666667 -0.41092077 -0.487071732
v 0.0833333333 -0.41092077 -0.487071732
v 0 -0.41092077 -0.487071732
v -0.0833333333 -0.41092077 -0.487071732
v -0.166666667 -0.41092077 -0.487071732
v -0.25 -0.41092077 -0.487071732
v -0.333333333 -0.41092077 -0.487071732
v -0.406443252 -0.406443252 -0.476997317
v 0.41092077 -0.333333333 -0.487071732
v 0.333333333 -0.333333333 -0.5
v 0.25 -0.333333333 -0.5
v 0.166666667 -0.333333333 -0.5
v 0.0833333333 -0.333333333 -0.5
v 0 -0.333333333 -0.5
v -0.0833333333 -0.333333333 -0.5
v -0.166666667 -0.333333333 -0.5
v -0.25 -0.333333333 -0.5
v -0.333333333 -0.333333333 -0.5
v -0.41092077 -0.333333333 -0.487071732
v 0.41092077 -0.25 -0.487071732
v 0.333333333 -0.25 -0.5
v 0.25 -0.25 -0.5
v 0.166666667 -0.25 -0.5
v 0.0833333333 -0.25 -0.5
v 0 -0.25 -0.5
v -0.0833333333 -0.25 -0.5
v -0.166666667 -0.25 -0.5
v -0.25 -0.25 -0.5
v -0.333333333 -0.25 -0.5
v -0.41092077 -0.25 -0.487071732
v 0.41092077 -0.166666667 -0.487071732
v 0.333333333 -0.166666667 -0.5
v 0.25 -0.166666667 -0.5
v 0.166666667 -0.166666667 -0.5
v 0.0833333333 -0.166666667 -0.5
v 0 -0.166666667 -0.5
v -0.0833333333 -0.166666667 -0.5
v -0.166666667 -0.166666667 -0.5
v -0.25 -0.166666667 -0.5
v -0.333333333 -0.166666667 -0.5
v -0.41092077 -0.166666667 -0.487071732
v 0.41092077 -0.0833333333 -0.487071732
v 0.333333333 -0.0833333333 -0.5
v 0.25 -0.0833333333 -0.5
v 0.166666667 -0.0833333333 -0.5
v 0.0833333333 -0.0833333333 -0.5
v 0 -0.0833333333 -0.5
v -0.0833333333 -0.0833333333 -0.5
v -0.166666667 -0.0833333333 -0.5
v -0.25 -0.0833333333 -0.5
v -0.333333333 -0.0833333333 -0.5
v -0.41092077 -0.0833333333 -0.487071732
v 0.41092077 0 -0.487071732
v 0.333333333 0 -0.5
v 0.25 0 -0.5
v 0.166666667 0 -0.5
v 0.0833333333 0 -0.5
v 0 0 -0.5
v -0.0833333333 0 -0.5
v -0.166666667 0 -0.5
v -0.25 0 -0.5
v -0.333333333 0 -0.5
v -0.41092077 0 -0.487071732
v 0.41092077 0.0833333333 -0.487071732
v 0.333333333 0.0833333333 -0.5
v 0.25 0.0833333333 -0.5
v 0.166666667 0.0833333333 -0.5
v 0.0833333333 0.0833333333 -0.5
v 0 0.0833333333 -0.5
v -0.0833333333 0.0833333333 -0.5
v -0.166666667 0.0833333333 -0.5
v -0.25 0.0833333333 -0.5
v -0.333333333 0.0833333333 -0.5
v -0.41092077 0.0833333333 -0.487071732
v 0.41092077 0.166666667 -0.487071732
v 0.333333333 0.166666667 -0.5
v 0.25 0.166666667 -0.5
v 0.166666667 0.166666667 -0.5
v 0.0833333333 0.166666667 -0.5
v 0 0.166666667 -0.5
v -0.0833333333 0.166666667 -0.5
v -0.166666667 0.166666667 -0.5
v -0.25 0.166666667 -0.5
v -0.333333333 0.166666667 -0.5
v -0.41092077 0.166666667 -0.487071732
v 0.41092077 0.25 -0.487071732
v 0.333333333 0.25 -0.5
v 0.25 0.25 -0.5
v 0.166666667 0.25 -0.5
v 0.0833333333 0.25 -0.5
v 0 0.25 -0.5
v -0.0833333333 0.25 -0.5
v -0.166666667 0.25 -0.5
v -0.25 0.25 -0.5
v -0.333333333 0.25 -0.5
v -0.41092077 0.25 -0.487071732
v 0.41092077 0.333333333 -0.487071732
v 0.333333333 0.333333333 -0.5
v 0.25 0.333333333 -0.5
v 0.166666667 0.333333333 -0.5
v 0.0833333333 0.333333333 -0.5
v 0 0.333333333 -0.5
v -0.0833333333 0.333333333 -0.5
v -0.166666667 0.333333333 -0.5
v -0.25 0.333333333 -0.5
v -0.333333333 0.333333333 -0.5
v -0.41092077 0.333333333 -0.487071732
v 0.406443252 0.406443252 -0.476997317
v 0.333333333 0.41092077 -0.487071732
v 0.25 0.41092077 -0.487071732
v 0.166666667 0.41092077 -0.487071732
v 0.0833333333 0.41092077 -0.487071732
v 0 0.41092077 -0.487071732
v -0.0833333333 0.41092077 -0.487071732
v -0.166666667 0.41092077 -0.487071732
v -0.25 0.41092077 -0.487071732
v -0.333333333 0.41092077 -0.487071732
v -0.406443252 0.406443252 -0.476997317
vn 0.577350269 -0.577350269 0.577350269
vn 0.67457852 -0.67457852 0.299812676
vn 0.707106781 -0.707106781 0
vn 0.707106781 -0.707106781 0
vn 0.707106781 -0.707106781 0
vn 0.707106781 -0.707106781 0
vn 0.707106781 -0.707106781 0
vn 0.707106781 -0.707106781 0
vn 0.707106781 -0.707106781 0
vn 0.707106781 -0.707106781 0
vn 0.707106781 -0.707106781 0
vn 0.67457852 -0.67457852 -0.299812676
vn 0.577350269 -0.577350269 -0.577350269
vn 0.67457852 -0.299812676 0.67457852
vn 0.846648782 -0.376288347 0.376288347
vn 0.913811549 -0.406138466 0
vn 0.913811549 -0.406138466 0
vn 0.913811549 -0.406138466 0
vn 0.913811549 -0.406138466 0
vn 0.913811549 -0.406138466 0
vn 0.913811549 -0.406138466 0
vn 0.913811549 -0.406138466 0
vn 0.913811549 -0.406138466 0
vn 0.913811549 -0.406138466 0
vn 0.846648782 -0.376288347 -0.376288347
vn 0.67457852 -0.299812676 -0.67457852
vn 0.707106781 0 0.707106781
vn 0.913811549 0 0.406138466
vn 1 0 0
vn 1 0 0
vn 1 0 0
vn 1 0 0
vn 1 0 0
vn 1 0 0
vn 1 0 0
vn 1 0 0
vn 1 0 0
vn 0.913811549 0 -0.406138466
vn 0.707106781 0 -0.707106781
vn 0.707106781 0 0.707106781
vn 0.913811549 0 0.406138466
vn 1 0 0
vn 1 0 0
vn 1 0 0
vn 1 0 0
vn 1 0 0
vn 1 0 0
vn 1 0 0
vn 1 0 0
vn 1 0 0
vn 0.913811549 0 -0.406138466
vn 0.707106781 0 -0.707106781
vn 0.707106781 0 0.707106781
vn 0.913811549 0 0.406138466
vn 1 0 0
vn 1 0 0
vn 1 0 0
vn 1 0 0
vn 1 0 0
vn 1 0 0
vn 1 0 0
vn 1 0 0
vn 1 0 0
vn 0.913811549 0 -0.406138466
vn 0.707106781 0 -0.707106781
vn 0.707106781 0 0.707106781
vn 0.913811549 0 0.406138466
vn 1 0 0
vn 1 0 0
vn 1 0 0
vn 1 0 0
vn 1 0 0
vn 1 0 0
vn 1 0 0
vn 1 0 0
vn 1 0 0
vn 0.913811549 0 -0.406138466
vn 0.707106781 0 -0.707106781
vn 0.707106781 0 0.707106781
vn 0.913811549 0 0.406138466
vn 1 0 0
vn 1 0 0
vn 1 0 0
vn 1 0 0
vn 1 0 0
vn 1 0 0
vn 1 0 0
vn 1 0 0
vn 1 0 0
vn 0.913811549 0 -0.406138466
vn 0.707106781 0 -0.707106781
vn 0.707106781 0 0.707106781
vn 0.913811549 0 0.406138466
vn 1 0 0
vn 1 0 0
vn 1 0 0
vn 1 0 0
vn 1 0 0
vn 1 0 0
vn 1 0 0
vn 1 0 0
vn 1 0 0
vn 0.913811549 0 -0.406138466
vn 0.707106781 0 -0.707106781
vn 0.707106781 0 0.707106781
vn 0.913811549 0 0.406138466
vn 1 0 0
vn 1 0 0
vn 1 0 0
vn 1 0 0
vn 1 0 0
vn 1 0 0
vn 1 0 0
vn 1 0 0
vn 1 0 0
vn 0.913811549 0 -0.406138466
vn 0.707106781 0 -0.707106781
vn 0.707106781 0 0.707106781
vn 0.913811549 0 0.406138466
vn 1 0 0
vn 1 0 0
vn 1 0 0
vn 1 0 0
vn 1 0 0
vn 1 0 0
vn 1 0 0
vn 1 0 0
vn 1 0 0
vn 0.913811549 0 -0.406138466
vn 0.707106781 0 -0.707106781
vn 0.707106781 0 0.707106781
vn 0.913811549 0 0.406138466
vn 1 0 0
vn 1 0 0
vn 1 0 0
vn 1 0 0
vn 1 0 0
vn 1 0 0
vn 1 0 0
vn 1 0 0
vn 1 0 0
vn 0.913811549 0 -0.406138466
vn 0.707106781 0 -0.707106781
vn 0.67457852 0.299812676 0.67457852
vn 0.846648782 0.376288347 0.376288347
vn 0.913811549 0.406138466 0
vn 0.913811549 0.406138466 0
vn 0.913811549 0.406138466 0
vn 0.913811549 0.406138466 0
vn 0.913811549 0.406138466 0
vn 0.913811549 0.406138466 0
vn 0.913811549 0.406138466 0
vn 0.913811549 0.406138466 0
vn 0.913811549 0.406138466 0
vn 0.846648782 0.376288347 -0.376288347
vn 0.67457852 0.299812676 -0.67457852
vn 0.577350269 0.577350269 0.577350269
vn 0.67457852 0.67457852 0.299812676
vn 0.707106781 0.707106781 0
vn 0.707106781 0.707106781 0
vn 0.707106781 0.707106781 0
vn 0.707106781 0.707106781 0
vn 0.707106781 0.707106781 0
vn 0.707106781 0.707106781 0
vn 0.707106781 0.707106781 0
vn 0.707106781 0.707106781 0
vn 0.707106781 0.707106781 0
vn 0.67457852 0.67457852 -0.299812676
vn 0.577350269 0.577350269 -0.577350269
vn -0.577350269 -0.577350269 -0.577350269
vn -0.67457852 -0.67457852 -0.299812676
vn -0.707106781 -0.707106781 0
vn -0.707106781 -0.707106781 0
vn -0.707106781 -0.707106781 0
vn -0.707106781 -0.707106781 0
vn -0.707106781 -0.707106781 0
vn -0.707106781 -0.707106781 0
vn -0.707106781 -0.707106781 0
vn -0.707106781 -0.707106781 0
vn -0.707106781 -0.707106781 0
vn -0.67457852 -0.67457852 0.299812676
vn -0.577350269 -0.577350269 0.577350269
vn -0.67457852 -0.299812676 -0.67457852
vn -0.846648782 -0.376288347 -0.376288347
vn -0.913811549 -0.406138466 0
vn -0.913811549 -0.406138466 0
vn -0.913811549 -0.406138466 0
vn -0.913811549 -0.406138466 0
vn -0.913811549 -0.406138466 0
vn -0.913811549 -0.406138466 0
vn -0.913811549 -0.406138466 0
vn -0.913811549 -0.406138466 0
vn -0.913811549 -0.406138466 0
vn -0.846648782 -0.376288347 0.376288347
vn -0.67457852 -0.299812676 0.67457852
vn -0.707106781 0 -0.707106781
vn -0.913811549 0 -0.406138466
vn -1 0 0
vn -1 0 0
vn -1 0 0
vn -1 0 0
vn -1 0 0
vn -1 0 0
vn -1 0 0
vn -1 0 0
vn -1 0 0
vn -0.913811549 0 0.406138466
vn -0.707106781 0 0.707106781
vn -0.707106781 0 -0.707106781
vn -0.913811549 0 -0.406138466
vn -1 0 0
vn -1 0 0
vn -1 0 0
vn -1 0 0
vn -1 0 0
vn -1 0 0
vn -1 0 0
vn -1 0 0
vn -1 0 0
vn -0.913811549 0 0.406138466
vn -0.707106781 0 0.707106781
vn -0.707106781 0 -0.707106781
vn -0.913811549 0 -0.406138466
vn -1 0 0
vn -1 0 0
vn -1 0 0
vn -1 0 0
vn -1 0 0
vn -1 0 0
vn -1 0 0
vn -1 0 0
vn -1 0 0
vn -0.913811549 0 0.406138466
vn -0.707106781 0 0.707106781
vn -0.707106781 0 -0.707106781
vn -0.913811549 0 -0.406138466
vn -1 0 0
vn -1 0 0
vn -1 0 0
vn -1 0 0
vn -1 0 0
vn -1 0 0
vn -1 0 0
vn -1 0 0
vn -1 0 0
vn -0.913811549 0 0.406138466
vn -0.707106781 0 0.707106781
vn -0.707106781 0 -0.707106781
vn -0.913811549 0 -0.406138466
vn -1 0 0
vn -1 0 0
vn -1 0 0
vn -1 0 0
vn -1 0 0
vn -1 0 0
vn -1 0 0
vn -1 0 0
vn -1 0 0
vn -0.913811549 0 0.406138466
vn -0.707106781 0 0.707106781
vn -0.707106781 0 -0.707106781
vn -0.913811549 0 -0.406138466
vn -1 0 0
vn -1 0 0
vn -1 0 0
vn -1 0 0
vn -1 0 0
vn -1 0 0
vn -1 0 0
vn -1 0 0
vn -1 0 0
vn -0.913811549 0 0.406138466
vn -0.707106781 0 0.707106781
vn -0.707106781 0 -0.707106781
vn -0.913811549 0 -0.406138466
vn -1 0 0
vn -1 0 0
vn -1 0 0
vn -1 0 0
vn -1 0 0
vn -1 0 0
vn -1 0 0
vn -1 0 0
vn -1 0 0
vn -0.913811549 0 0.406138466
vn -0.707106781 0 0.707106781
vn -0.707106781 0 -0.707106781
vn -0.913811549 0 -0.406138466
vn -1 0 0
vn -1 0 0
vn -1 0 0
vn -1 0 0
vn -1 0 0
vn -1 0 0
vn -1 0 0
vn -1 0 0
vn -1 0 0
vn -0.913811549 0 0.406138466
vn -0.707106781 0 0.707106781
vn -0.707106781 0 -0.707106781
vn -0.913811549 0 -0.406138466
vn -1 0 0
vn -1 0 0
vn -1 0 0
vn -1 0 0
vn -1 0 0
vn -1 0 0
vn -1 0 0
vn -1 0 0
vn -1 0 0
vn -0.913811549 0 0.406138466
vn -0.707106781 0 0.707106781
vn -0.67457852 0.299812676 -0.67457852
vn -0.846648782 0.376288347 -0.376288347
vn -0.913811549 0.406138466 0
vn -0.913811549 0.406138466 0
vn -0.913811549 0.406138466 0
vn -0.913811549 0.406138466 0
vn -0.913811549 0.406138466 0
vn -0.913811549 0.406138466 0
vn -0.913811549 0.406138466 0
vn -0.913811549 0.406138466 0
vn -0.913811549 0.406138466 0
vn -0.846648782 0.376288347 0.376288347
vn -0.67457852 0.299812676 0.67457852
vn -0.577350269 0.577350269 -0.577350269
vn -0.67457852 0.67457852 -0.299812676
vn -0.707106781 0.707106781 0
vn -0.707106781 0.707106781 0
vn -0.707106781 0.707106781 0
vn -0.707106781 0.707106781 0
vn -0.707106781 0.707106781 0
vn -0.707106781 0.707106781 0
vn -0.707106781 0.707106781 0
vn -0.707106781 0.707106781 0
vn -0.707106781 0.707106781 0
vn -0.67457852 0.67457852 0.299812676
vn -0.577350269 0.577350269 0.577350269
vn -0.299812676 0.67457852 0.67457852
vn 0 0.707106781 0.707106781
vn 0 0.707106781 0.707106781
vn 0 0.707106781 0.707106781
vn 0 0.707106781 0.707106781
vn 0 0.707106781 0.707106781
vn 0 0.707106781 0.707106781
vn 0 0.707106781 0.707106781
vn 0 0.707106781 0.707106781
vn 0 0.707106781 0.707106781
vn 0.299812676 0.67457852 0.67457852
vn -0.376288347 0.846648782 0.376288347
vn 0 0.913811549 0.406138466
vn 0 0.913811549 0.406138466
vn 0 0.913811549 0.406138466
vn 0 0.913811549 0.406138466
vn 0 0.913811549 0.406138466
vn 0 0.913811549 0.406138466
vn 0 0.913811549 0.406138466
vn 0 0.913811549 0.406138466
vn 0 0.913811549 0.406138466
vn 0.376288347 0.846648782 0.376288347
vn -0.406138466 0.913811549 0
vn 0 1 0
vn 0 1 0
vn 0 1 0
vn 0 1 0
vn 0 1 0
vn 0 1 0
vn 0 1 0
vn 0 1 0
vn 0 1 0
vn 0.406138466 0.913811549 0
vn -0.406138466 0.913811549 0
vn 0 1 0
vn 0 1 0
vn 0 1 0
vn 0 1 0
vn 0 1 0
vn 0 1 0
vn 0 1 0
vn 0 1 0
vn 0 1 0
vn 0.406138466 0.913811549 0
vn -0.406138466 0.913811549 0
vn 0 1 0
vn 0 1 0
vn 0 1 0
vn 0 1 0
vn 0 1 0
vn 0 1 0
vn 0 1 0
vn 0 1 0
vn 0 1 0
vn 0.406138466 0.913811549 0
vn -0.406138466 0.913811549 0
vn 0 1 0
vn 0 1 0
vn 0 1 0
vn 0 1 0
vn 0 1 0
vn 0 1 0
vn 0 1 0
vn 0 1 0
vn 0 1 0
vn 0.406138466 0.913811549 0
vn -0.406138466 0.913811549 0
vn 0 1 0
vn 0 1 0
vn 0 1 0
vn 0 1 0
vn 0 1 0
vn 0 1 0
vn 0 1 0
vn 0 1 0
vn 0 1 0
vn 0.406138466 0.913811549 0
vn -0.406138466 0.913811549 0
vn 0 1 0
vn 0 1 0
vn 0 1 0
vn 0 1 0
vn 0 1 0
vn 0 1 0
vn 0 1 0
vn 0 1 0
vn 0 1 0
vn 0.406138466 0.913811549 0
vn -0.406138466 0.913811549 0
vn 0 1 0
vn 0 1 0
vn 0 1 0
vn 0 1 0
vn 0 1 0
vn 0 1 0
vn 0 1 0
vn 0 1 0
vn 0 1 0
vn 0.406138466 0.913811549 0
vn -0.406138466 0.913811549 0
vn 0 1 0
vn 0 1 0
vn 0 1 0
vn 0 1 0
vn 0 1 0
vn 0 1 0
vn 0 1 0
vn 0 1 0
vn 0 1 0
vn 0.406138466 0.913811549 0
vn -0.406138466 0.913811549 0
vn 0 1 0
vn 0 1 0
vn 0 1 0
vn 0 1 0
vn 0 1 0
vn 0 1 0
vn 0 1 0
vn 0 1 0
vn 0 1 0
vn 0.406138466 0.913811549 0
vn -0.376288347 0.846648782 -0.376288347
vn 0 0.913811549 -0.406138466
vn 0 0.913811549 -0.406138466
vn 0 0.913811549 -0.406138466
vn 0 0.913811549 -0.406138466
vn 0 0.913811549 -0.406138466
vn 0 0.913811549 -0.406138466
vn 0 0.913811549 -0.406138466
vn 0 0.913811549 -0.406138466
vn 0 0.913811549 -0.406138466
vn 0.376288347 0.846648782 -0.376288347
vn -0.299812676 0.67457852 -0.67457852
vn 0 0.707106781 -0.707106781
vn 0 0.707106781 -0.707106781
vn 0 0.707106781 -0.707106781
vn 0 0.707106781 -0.707106781
vn 0 0.707106781 -0.707106781
vn 0 0.707106781 -0.707106781
vn 0 0.707106781 -0.707106781
vn 0 0.707106781 -0.707106781
vn 0 0.707106781 -0.707106781
vn 0.299812676 0.67457852 -0.67457852
vn -0.299812676 -0.67457852 -0.67457852
vn 0 -0.707106781 -0.707106781
vn 0 -0.707106781 -0.707106781
vn 0 -0.707106781 -0.707106781
vn 0 -0.707106781 -0.707106781
vn 0 -0.707106781 -0.707106781
vn 0 -0.707106781 -0.707106781
vn 0 -0.707106781 -0.707106781
vn 0 -0.707106781 -0.707106781
vn 0 -0.707106781 -0.707106781
vn 0.299812676 -0.67457852 -0.67457852
vn -0.376288347 -0.846648782 -0.376288347
vn 0 -0.913811549 -0.406138466
vn 0 -0.913811549 -0.406138466
vn 0 -0.913811549 -0.406138466
vn 0 -0.913811549 -0.406138466
vn 0 -0.913811549 -0.406138466
vn 0 -0.913811549 -0.406138466
vn 0 -0.913811549 -0.406138466
vn 0 -0.913811549 -0.406138466
vn 0 -0.913811549 -0.406138466
vn 0.376288347 -0.846648782 -0.376288347
vn -0.406138466 -0.913811549 0
vn 0 -1 0
vn 0 -1 0
vn 0 -1 0
vn 0 -1 0
vn 0 -1 0
vn 0 -1 0
vn 0 -1 0
vn 0 -1 0
vn 0 -1 0
vn 0.406138466 -0.913811549 0
vn -0.406138466 -0.913811549 0
vn 0 -1 0
vn 0 -1 0
vn 0 -1 0
vn 0 -1 0
vn 0 -1 0
vn 0 -1 0
vn 0 -1 0
vn 0 -1 0
vn 0 -1 0
vn 0.406138466 -0.913811549 0
vn -0.406138466 -0.913811549 0
vn 0 -1 0
vn 0 -1 0
vn 0 -1 0
vn 0 -1 0
vn 0 -1 0
vn 0 -1 0
vn 0 -1 0
vn 0 -1 0
vn 0 -1 0
vn 0.406138466 -0.913811549 0
vn -0.406138466 -0.913811549 0
vn 0 -1 0
vn 0 -1 0
vn 0 -1 0
vn 0 -1 0
vn 0 -1 0
vn 0 -1 0
vn 0 -1 0
vn 0 -1 0
vn 0 -1 0
vn 0.406138466 -0.913811549 0
vn -0.406138466 -0.913811549 0
vn 0 -1 0
vn 0 -1 0
vn 0 -1 0
vn 0 -1 0
vn 0 -1 0
vn 0 -1 0
vn 0 -1 0
vn 0 -1 0
vn 0 -1 0
vn 0.406138466 -0.913811549 0
vn -0.406138466 -0.913811549 0
vn 0 -1 0
vn 0 -1 0
vn 0 -1 0
vn 0 -1 0
vn 0 -1 0
vn 0 -1 0
vn 0 -1 0
vn 0 -1 0
vn 0 -1 0
vn 0.406138466 -0.913811549 0
vn -0.406138466 -0.913811549 0
vn 0 -1 0
vn 0 -1 0
vn 0 -1 0
vn 0 -1 0
vn 0 -1 0
vn 0 -1 0
vn 0 -1 0
vn 0 -1 0
vn 0 -1 0
vn 0.406138466 -0.913811549 0
vn -0.406138466 -0.913811549 0
vn 0 -1 0
vn 0 -1 0
vn 0 -1 0
vn 0 -1 0
vn 0 -1 0
vn 0 -1 0
vn 0 -1 0
vn 0 -1 0
vn 0 -1 0
vn 0.406138466 -0.913811549 0
vn -0.406138466 -0.913811549 0
vn 0 -1 0
vn 0 -1 0
vn 0 -1 0
vn 0 -1 0
vn 0 -1 0
vn 0 -1 0
vn 0 -1 0
vn 0 -1 0
vn 0 -1 0
vn 0.406138466 -0.913811549 0
vn -0.376288347 -0.846648782 0.376288347
vn 0 -0.913811549 0.406138466
vn 0 -0.913811549 0.406138466
vn 0 -0.913811549 0.406138466
vn 0 -0.913811549 0.406138466
vn 0 -0.913811549 0.406138466
vn 0 -0.913811549 0.406138466
vn 0 -0.913811549 0.406138466
vn 0 -0.913811549 0.406138466
vn 0 -0.913811549 0.406138466
vn 0.376288347 -0.846648782 0.376288347
vn -0.299812676 -0.67457852 0.67457852
vn 0 -0.707106781 0.707106781
vn 0 -0.707106781 0.707106781
vn 0 -0.707106781 0.707106781
vn 0 -0.707106781 0.707106781
vn 0 -0.707106781 0.707106781
vn 0 -0.707106781 0.707106781
vn 0 -0.707106781 0.707106781
vn 0 -0.707106781 0.707106781
vn 0 -0.707106781 0.707106781
vn 0.299812676 -0.67457852 0.67457852
vn -0.376288347 -0.376288347 0.846648782
vn 0 -0.406138466 0.913811549
vn 0 -0.406138466 0.913811549
vn 0 -0.406138466 0.913811549
vn 0 -0.406138466 0.913811549
vn 0 -0.406138466 0.913811549
vn 0 -0.406138466 0.913811549
vn 0 -0.406138466 0.913811549
vn 0 -0.406138466 0.913811549
vn 0 -0.406138466 0.913811549
vn 0.376288347 -0.376288347 0.846648782
vn -0.406138466 0 0.913811549
vn 0 0 1
vn 0 0 1
vn 0 0 1
vn 0 0 1
vn 0 0 1
vn 0 0 1
vn 0 0 1
vn 0 0 1
vn 0 0 1
vn 0.406138466 0 0.913811549
vn -0.406138466 0 0.913811549
vn 0 0 1
vn 0 0 1
vn 0 0 1
vn 0 0 1
vn 0 0 1
vn 0 0 1
vn 0 0 1
vn 0 0 1
vn 0 0 1
vn 0.406138466 0 0.913811549
vn -0.406138466 0 0.913811549
vn 0 0 1
vn 0 0 1
vn 0 0 1
vn 0 0 1
vn 0 0 1
vn 0 0 1
vn 0 0 1
vn 0 0 1
vn 0 0 1
vn 0.406138466 0 0.913811549
vn -0.406138466 0 0.913811549
vn 0 0 1
vn 0 0 1
vn 0 0 1
vn 0 0 1
vn 0 0 1
vn 0 0 1
vn 0 0 1
vn 0 0 1
vn 0 0 1
vn 0.406138466 0 0.913811549
vn -0.406138466 0 0.913811549
vn 0 0 1
vn 0 0 1
vn 0 0 1
vn 0 0 1
vn 0 0 1
vn 0 0 1
vn 0 0 1
vn 0 0 1
vn 0 0 1
vn 0.406138466 0 0.913811549
vn -0.406138466 0 0.913811549
vn 0 0 1
vn 0 0 1
vn 0 0 1
vn 0 0 1
vn 0 0 1
vn 0 0 1
vn 0 0 1
vn 0 0 1
vn 0 0 1
vn 0.406138466 0 0.913811549
vn -0.406138466 0 0.913811549
vn 0 0 1
vn 0 0 1
vn 0 0 1
vn 0 0 1
vn 0 0 1
vn 0 0 1
vn 0 0 1
vn 0 0 1
vn 0 0 1
vn 0.406138466 0 0.913811549
vn -0.406138466 0 0.913811549
vn 0 0 1
vn 0 0 1
vn 0 0 1
vn 0 0 1
vn 0 0 1
vn 0 0 1
vn 0 0 1
vn 0 0 1
vn 0 0 1
vn 0.406138466 0 0.913811549
vn -0.406138466 0 0.913811549
vn 0 0 1
vn 0 0 1
vn 0 0 1
vn 0 0 1
vn 0 0 1
vn 0 0 1
vn 0 0 1
vn 0 0 1
vn 0 0 1
vn 0.406138466 0 0.913811549
vn -0.376288347 0.376288347 0.846648782
vn 0 0.406138466 0.913811549
vn 0 0.406138466 0.913811549
vn 0 0.406138466 0.913811549
vn 0 0.406138466 0.913811549
vn 0 0.406138466 0.913811549
vn 0 0.406138466 0.913811549
vn 0 0.406138466 0.913811549
vn 0 0.406138466 0.913811549
vn 0 0.406138466 0.913811549
vn 0.376288347 0.376288347 0.846648782
vn 0.376288347 -0.376288347 -0.846648782
vn 0 -0.406138466 -0.913811549
vn 0 -0.406138466 -0.913811549
vn 0 -0.406138466 -0.913811549
vn 0 -0.406138466 -0.913811549
vn 0 -0.406138466 -0.913811549
vn 0 -0.406138466 -0.913811549
vn 0 -0.406138466 -0.913811549
vn 0 -0.406138466 -0.913811549
vn 0 -0.406138466 -0.913811549
vn -0.376288347 -0.376288347 -0.846648782
vn 0.406138466 0 -0.913811549
vn 0 0 -1
vn 0 0 -1
vn 0 0 -1
vn 0 0 -1
vn 0 0 -1
vn 0 0 -1
vn 0 0 -1
vn 0 0 -1
vn 0 0 -1
vn -0.406138466 0 -0.913811549
vn 0.406138466 0 -0.913811549
vn 0 0 -1
vn 0 0 -1
vn 0 0 -1
vn 0 0 -1
vn 0 0 -1
vn 0 0 -1
vn 0 0 -1
vn 0 0 -1
vn 0 0 -1
vn -0.406138466 0 -0.913811549
vn 0.406138466 0 -0.913811549
vn 0 0 -1
vn 0 0 -1
vn 0 0 -1
vn 0 0 -1
vn 0 0 -1
vn 0 0 -1
vn 0 0 -1
vn 0 0 -1
vn 0 0 -1
vn -0.406138466 0 -0.913811549
vn 0.406138466 0 -0.913811549
vn 0 0 -1
vn 0 0 -1
vn 0 0 -1
vn 0 0 -1
vn 0 0 -1
vn 0 0 -1
vn 0 0 -1
vn 0 0 -1
vn 0 0 -1
vn -0.406138466 0 -0.913811549
vn 0.406138466 0 -0.913811549
vn 0 0 -1
vn 0 0 -1
vn 0 0 -1
vn 0 0 -1
vn 0 0 -1
vn 0 0 -1
vn 0 0 -1
vn 0 0 -1
vn 0 0 -1
vn -0.406138466 0 -0.913811549
vn 0.406138466 0 -0.913811549
vn 0 0 -1
vn 0 0 -1
vn 0 0 -1
vn 0 0 -1
vn 0 0 -1
vn 0 0 -1
vn 0 0 -1
vn 0 0 -1
vn 0 0 -1
vn -0.406138466 0 -0.913811549
vn 0.406138466 0 -0.913811549
vn 0 0 -1
vn 0 0 -1
vn 0 0 -1
vn 0 0 -1
vn 0 0 -1
vn 0 0 -1
vn 0 0 -1
vn 0 0 -1
vn 0 0 -1
vn -0.406138466 0 -0.913811549
vn 0.406138466 0 -0.913811549
vn 0 0 -1
vn 0 0 -1
vn 0 0 -1
vn 0 0 -1
vn 0 0 -1
vn 0 0 -1
vn 0 0 -1
vn 0 0 -1
vn 0 0 -1
vn -0.406138466 0 -0.913811549
vn 0.406138466 0 -0.913811549
vn 0 0 -1
vn 0 0 -1
vn 0 0 -1
vn 0 0 -1
vn 0 0 -1
vn 0 0 -1
vn 0 0 -1
vn 0 0 -1
vn 0 0 -1
vn -0.406138466 0 -0.913811549
vn 0.376288347 0.376288347 -0.846648782
vn 0 0.406138466 -0.913811549
vn 0 0.406138466 -0.913811549
vn 0 0.406138466 -0.913811549
vn 0 0.406138466 -0.913811549
vn 0 0.406138466 -0.913811549
vn 0 0.406138466 -0.913811549
vn 0 0.406138466 -0.913811549
vn 0 0.406138466 -0.913811549
vn 0 0.406138466 -0.913811549
vn -0.376288347 0.376288347 -0.846648782
f 1//1 2//2 15//15 14//14
f 2//2 3//3 16//16 15//15
f 3//3 4//4 17//17 16//16
f 4//4 5//5 18//18 17//17
f 5//5 6//6 19//19 18//18
f 6//6 7//7 20//20 19//19
f 7//7 8//8 21//21 20//20
f 8//8 9//9 22//22 21//21
f 9//9 10//10 23//23 22//22
f 10//10 11//11 24//24 23//23
f 11//11 12//12 25//25 24//24
f 12//12 13//13 26//26 25//25
f 14//14 15//15 28//28 27//27
f 15//15 16//16 29//29 28//28
f 16//16 17//17 30//30 29//29
f 17//17 18//18 31//31 30//30
f 18//18 19//19 32//32 31//31
f 19//19 20//20 33//33 32//32
f 20//20 21//21 34//34 33//33
f 21//21 22//22 35//35 34//34
f 22//22 23//23 36//36 35//35
f 23//23 24//24 37//37 36//36
f 24//24 25//25 38//38 37//37
f 25//25 26//26 39//39 38//38
f 27//27 28//28 41//41 40//40
f 28//28 29//29 42//42 41//41
f 29//29 30//30 43//43 42//42
f 30//30 31//31 44//44 43//43
f 31//31 32//32 45//45 44//44
f 32//32 33//33 46//46 45//45
f 33//33 34//34 47//47 46//46
f 34//34 35//35 48//48 47//47
f 35//35 36//36 49//49 48//48
f 36//36 37//37 50//50 49//49
f 37//37 38//38 51//51 50//50
f 38//38 39//39 52//52 51//51
f 40//40 41//41 54//54 53//53
f 41//41 42//42 55//55 54//54
f 42//42 43//43 56//56 55//55
f 43//43 44//44 57//57 56//56
f 44//44 45//45 58//58 57//57
f 45//45 46//46 59//59 58//58
f 46//46 47//47 60//60 59//59
f 47//47 48//48 61//61 60//60
f 48//48 49//49 62//62 61//61
f 49//49 50//50 63//63 62//62
f 50//50 51//51 64//64 63//63
f 51//51 52//52 65//65 64//64
f 53//53 54//54 67//67 66//66
f 54//54 55//55 68//68 67//67
f 55//55 56//56 69//69 68//68
f 56//56 57//57 70//70 69//69
f 57//57 58//58 71//71 70//70
f 58//58 59//59 72//72 71//71
f 59//59 60//60 73//73 72//72
f 60//60 61//61 74//74 73//73
f 61//61 62//62 75//75 74//74
f 62//62 63//63 76//76 75//75
f 63//63 64//64 77//77 76//76
f 64//64 65//65 78//78 77//77
f 66//66 67//67 80//80 79//79
f 67//67 68//68 81//81 80//80
f 68//68 69//69 82//82 81//81
f 69//69 70//70 83//83 82//82
f 70//70 71//71 84//84 83//83
f 71//71 72//72 85//85 84//84
f 72//72 73//73 86//86 85//85
f 73//73 74//74 87//87 86//86
f 74//74 75//75 88//88 87//87
f 75//75 76//76 89//89 88//88
f 76//76 77//77 90//90 89//89
f 77//77 78//78 91//91 90//90
f 79//79 80//80 93//93 92//92
f 80//80 81//81 94//94 93//93
f 81//81 82//82 95//95 94//94
f 82//82 83//83 96//96 95//95
f 83//83 84//84 97//97 96//96
f 84//84 85//85 98//98 97//97
f 85//85 86//86 99//99 98//98
f 86//86 87//87 100//100 99//99
f 87//87 88//88 101//101 100//100
f 88//88 89//89 102//102 101//101
f 89//89 90//90 103//103 102//102
f 90//90 91//91 104//104 103//103
f 92//92 93//93 106//106 105//105
f 93//93 94//94 107//107 106//106
f 94//94 95//95 108//108 107//107
f 95//95 96//96 109//109 108//108
f 96//96 97//97 110//110 109//109
f 97//97 98//98 111//111 110//110
f 98//98 99//99 112//112 111//111
f 99//99 100//100 113//113 112//112
f 100//100 101//101 114//114 113//113
f 101//101 102//102 115//115 114//114
f 102//102 103//103 116//116 115//115
f 103//103 104//104 117//117 116//116
f 105//105 106//106 119//119 118//118
f 106//106 107//107 120//120 119//119
f 107//107 108//108 121//121 120//120
f 108//108 109//109 122//122 121//121
f 109//109 110//110 123//123 122//122
f 110//110 111//111 124//124 123//123
f 111//111 112//112 125//125 124//124
f 112//112 113//113 126//126 125//125
f 113//113 114//114 127//127 126//126
f 114//114 115//115 128//128 127//127
f 115//115 116//116 129//129 128//128
f 116//116 117//117 130//130 129//129
f 118//118 119//119 132//132 131//131
f 119//119 120//120 133//133 132//132
f 120//120 121//121 134//134 133//133
f 121//121 122//122 135//135 134//134
f 122//122 123//123 136//136 135//135
f 123//123 124//124 137//137 136//136
f 124//124 125//125 138//138 137//137
f 125//125 126//126 139//139 138//138
f 126//126 127//127 140//140 139//139
f 127//127 128//128 141//141 140//140
f 128//128 129//129 142//142 141//141
f 129//129 130//130 143//143 142//142
f 131//131 132//132 145//145 144//144
f 132//132 133//133 146//146 145//145
f 133//133 134//134 147//147 146//146
f 134//134 135//135 148//148 147//147
f 135//135 136//136 149//149 148//148
f 136//136 137//137 150//150 149//149
f 137//137 138//138 151//151 150//150
f 138//138 139//139 152//152 151//151
f 139//139 140//140 153//153 152//152
f 140//140 141//141 154//154 153//153
f 141//141 142//142 155//155 154//154
f 142//142 143//143 156//156 155//155
f 144//144 145//145 158//158 157//157
f 145//145 146//146 159//159 158//158
f 146//146 147//147 160//160 159//159
f 147//147 148//148 161//161 160//160
f 148//148 149//149 162//162 161//161
f 149//149 150//150 163//163 162//162
f 150//150 151//151 164//164 163//163
f 151//151 152//152 165//165 164//164
f 152//152 153//153 166//166 165//165
f 153//153 154//154 167//167 166//166
f 154//154 155//155 168//168 167//167
f 155//155 156//156 169//169 168//168
f 170//170 171//171 184//184 183//183
f 171//171 172//172 185//185 184//184
f 172//172 173//173 186//186 185//185
f 173//173 174//174 187//187 186//186
f 174//174 175//175 188//188 187//187
f 175//175 176//176 189//189 188//188
f 176//176 177//177 190//190 189//189
f 177//177 178//178 191//191 190//190
f 178//178 179//179 192//192 191//191
f 179//179 180//180 193//193 192//192
f 180//180 181//181 194//194 193//193
f 181//181 182//182 195//195 194//194
f 183//183 184//184 197//197 196//196
f 184//184 185//185 198//198 197//197
f 185//185 186//186 199//199 198//198
f 186//186 187//187 200//200 199//199
f 187//187 188//188 201//201 200//200
f 188//188 189//189 202//202 201//201
f 189//189 190//190 203//203 202//202
f 190//190 191//191 204//204 203//203
f 191//191 192//192 205//205 204//204
f 192//192 193//193 206//206 205//205
f 193//193 194//194 207//207 206//206
f 194//194 195//195 208//208 207//207
f 196//196 197//197 210//210 209//209
f 197//197 198//198 211//211 210//210
f 198//198 199//199 212//212 211//211
f 199//199 200//200 213//213 212//212
f 200//200 201//201 214//214 213//213
f 201//201 202//202 215//215 214//214
f 202//202 203//203 216//216 215//215
f 203//203 204//204 217//217 216//216
f 204//204 205//205 218//218 217//217
f 205//205 206//206 219//219 218//218
f 206//206 207//207 220//220 219//219
f 207//207 208//208 221//221 220//220
f 209//209 210//210 223//223 222//222
f 210//210 211//211 224//224 223//223
f 211//211 212//212 225//225 224//224
f 212//212 213//213 226//226 225//225
f 213//213 214//214 227//227 226//226
f 214//214 215//215 228//228 227//227
f 215//215 216//216 229//229 228//228
f 216//216 217//217 230//230 229//229
f 217//217 218//218 231//231 230//230
f 218//218 219//219 232//232 231//231
f 219//219 220//220 233//233 232//232
f 220//220 221//221 234//234 233//233
f 222//222 223//223 236//236 235//235
f 223//223 224//224 237//237 236//236
f 224//224 225//225 238//238 237//237
f 225//225 226//226 239//239 238//238
f 226//226 227//227 240//240 239//239
f 227//227 228//228 241//241 240//240
f 228//228 229//229 242//242 241//241
f 229//229 230//230 243//243 242//242
f 230//230 231//231 244//244 243//243
f 231//231 232//232 245//245 244//244
f 232//232 233//233 246//246 245//245
f 233//233 234//234 247//247 246//246
f 235//235 236//236 249//249 248//248
f 236//236 237//237 250//250 249//249
f 237//237 238//238 251//251 250//250
f 238//238 239//239 252//252 251//251
f 239//239 240//240 253//253 252//252
f 240//240 241//241 254//254 253//253
f 241//241 242//242 255//255 254//254
f 242//242 243//243 256//256 255//255
f 243//243 244//244 257//257 256//256
f 244//244 245//245 258//258 257//257
f 245//245 246//246 259//259 258//258
f 246//246 247//247 260//260 259//259
f 248//248 249//249 262//262 261//261
f 249//249 250//250 263//263 262//262
f 250//250 251//251 264//264 263//263
f 251//251 252//252 265//265 264//264
f 252//252 253//253 266//266 265//265
f 253//253 254//254 267//267 266//266
f 254//254 255//255 268//268 267//267
f 255//255 256//256 269//269 268//268
f 256//256 257//257 270//270 269//269
f 257//257 258//258 271//271 270//270
f 258//258 259//259 272//272 271//271
f 259//259 260//260 273//273 272//272
f 261//261 262//262 275//275 274//274
f 262//262 263//263 276//276 275//275
f 263//263 264//264 277//277 276//276
f 264//264 265//265 278//278 277//277
f 265//265 266//266 279//279 278//278
f 266//266 267//267 280//280 279//279
f 267//267 268//268 281//281 280//280
f 268//268 269//269 282//282 281//281
f 269//269 270//270 283//283 282//282
f 270//270 271//271 284//284 283//283
f 271//271 272//272 285//285 284//284
f 272//272 273//273 286//286 285//285
f 274//274 275//275 288//288 287//287
f 275//275 276//276 289//289 288//288
f 276//276 277//277 290//290 289//289
f 277//277 278//278 291//291 290//290
f 278//278 279//279 292//292 291//291
f 279//279 280//280 293//293 292//292
f 280//280 281//281 294//294 293//293
f 281//281 282//282 295//295 294//294
f 282//282 283//283 296//296 295//295
f 283//283 284//284 297//297 296//296
f 284//284 285//285 298//298 297//297
f 285//285 286//286 299//299 298//298
f 287//287 288//288 301//301 300//300
f 288//288 289//289 302//302 301//301
f 289//289 290//290 303//303 302//302
f 290//290 291//291 304//304 303//303
f 291//291 292//292 305//305 304//304
f 292//292 293//293 306//306 305//305
f 293//293 294//294 307//307 306//306
f 294//294 295//295 308//308 307//307
f 295//295 296//296 309//309 308//308
f 296//296 297//297 310//310 309//309
f 297//297 298//298 311//311 310//310
f 298//298 299//299 312//312 311//311
f 300//300 301//301 314//314 313//313
f 301//301 302//302 315//315 314//314
f 302//302 303//303 316//316 315//315
f 303//303 304//304 317//317 316//316
f 304//304 305//305 318//318 317//317
f 305//305 306//306 319//319 318//318
f 306//306 307//307 320//320 319//319
f 307//307 308//308 321//321 320//320
f 308//308 309//309 322//322 321//321
f 309//309 310//310 323//323 322//322
f 310//310 311//311 324//324 323//323
f 311//311 312//312 325//325 324//324
f 313//313 314//314 327//327 326//326
f 314//314 315//315 328//328 327//327
f 315//315 316//316 329//329 328//328
f 316//316 317//317 330//330 329//329
f 317//317 318//318 331//331 330//330
f 318//318 319//319 332//332 331//331
f 319//319 320//320 333//333 332//332
f 320//320 321//321 334//334 333//333
f 321//321 322//322 335//335 334//334
f 322//322 323//323 336//336 335//335
f 323//323 324//324 337//337 336//336
f 324//324 325//325 338//338 337//337
f 338//338 339//339 350//350 337//337
f 339//339 340//340 351//351 350//350
f 340//340 341//341 352//352 351//351
f 341//341 342//342 353//353 352//352
f 342//342 343//343 354//354 353//353
f 343//343 344//344 355//355 354//354
f 344//344 345//345 356//356 355//355
f 345//345 346//346 357//357 356//356
f 346//346 347//347 358//358 357//357
f 347//347 348//348 359//359 358//358
f 348//348 349//349 360//360 359//359
f 349//349 157//157 158//158 360//360
f 337//337 350//350 361//361 336//336
f 350//350 351//351 362//362 361//361
f 351//351 352//352 363//363 362//362
f 352//352 353//353 364//364 363//363
f 353//353 354//354 365//365 364//364
f 354//354 355//355 366//366 365//365
f 355//355 356//356 367//367 366//366
f 356//356 357//357 368//368 367//367
f 357//357 358//358 369//369 368//368
f 358//358 359//359 370//370 369//369
f 359//359 360//360 371//371 370//370
f 360//360 158//158 159//159 371//371
f 336//336 361//361 372//372 335//335
f 361//361 362//362 373//373 372//372
f 362//362 363//363 374//374 373//373
f 363//363 364//364 375//375 374//374
f 364//364 365//365 376//376 375//375
f 365//365 366//366 377//377 376//376
f 366//366 367//367 378//378 377//377
f 367//367 368//368 379//379 378//378
f 368//368 369//369 380//380 379//379
f 369//369 370//370 381//381 380//380
f 370//370 371//371 382//382 381//381
f 371//371 159//159 160//160 382//382
f 335//335 372//372 383//383 334//334
f 372//372 373//373 384//384 383//383
f 373//373 374//374 385//385 384//384
f 374//374 375//375 386//386 385//385
f 375//375 376//376 387//387 386//386
f 376//376 377//377 388//388 387//387
f 377//377 378//378 389//389 388//388
f 378//378 379//379 390//390 389//389
f 379//379 380//380 391//391 390//390
f 380//380 381//381 392//392 391//391
f 381//381 382//382 393//393 392//392
f 382//382 160//160 161//161 393//393
f 334//334 383//383 394//394 333//333
f 383//383 384//384 395//395 394//394
f 384//384 385//385 396//396 395//395
f 385//385 386//386 397//397 396//396
f 386//386 387//387 398//398 397//397
f 387//387 388//388 399//399 398//398
f 388//388 389//389 400//400 399//399
f 389//389 390//390 401//401 400//400
f 390//390 391//391 402//402 401//401
f 391//391 392//392 403//403 402//402
f 392//392 393//393 404//404 403//403
f 393//393 161//161 162//162 404//404
f 333//333 394//394 405//405 332//332
f 394//394 395//395 406//406 405//405
f 395//395 396//396 407//407 406//406
f 396//396 397//397 408//408 407//407
f 397//397 398//398 409//409 408//408
f 398//398 399//399 410//410 409//409
f 399//399 400//400 411//411 410//410
f 400//400 401//401 412//412 411//411
f 401//401 402//402 413//413 412//412
f 402//402 403//403 414//414 413//413
f 403//403 404//404 415//415 414//414
f 404//404 162//162 163//163 415//415
f 332//332 405//405 416//416 331//331
f 405//405 406//406 417//417 416//416
f 406//406 407//407 418//418 417//417
f 407//407 408//408 419//419 418//418
f 408//408 409//409 420//420 419//419
f 409//409 410//410 421//421 420//420
f 410//410 411//411 422//422 421//421
f 411//411 412//412 423//423 422//422
f 412//412 413//413 424//424 423//423
f 413//413 414//414 425//425 424//424
f 414//414 415//415 426//426 425//425
f 415//415 163//163 164//164 426//426
f 331//331 416//416 427//427 330//330
f 416//416 417//417 428//428 427//427
f 417//417 418//418 429//429 428//428
f 418//418 419//419 430//430 429//429
f 419//419 420//420 431//431 430//430
f 420//420 421//421 432//432 431//431
f 421//421 422//422 433//433 432//432
f 422//422 423//423 434//434 433//433
f 423//423 424//424 435//435 434//434
f 424//424 425//425 436//436 435//435
f 425//425 426//426 437//437 436//436
f 426//426 164//164 165//165 437//437
f 330//330 427//427 438//438 329//329
f 427//427 428//428 439//439 438//438
f 428//428 429//429 440//440 439//439
f 429//429 430//430 441//441 440//440
f 430//430 431//431 442//442 441//441
f 431//431 432//432 443//443 442//442
f 432//432 433//433 444//444 443//443
f 433//433 434//434 445//445 444//444
f 434//434 435//435 446//446 445//445
f 435//435 436//436 447//447 446//446
f 436//436 437//437 448//448 447//447
f 437//437 165//165 166//166 448//448
f 329//329 438//438 449//449 328//328
f 438//438 439//439 450//450 449//449
f 439//439 440//440 451//451 450//450
f 440//440 441//441 452//452 451//451
f 441//441 442//442 453//453 452//452
f 442//442 443//443 454//454 453//453
f 443//443 444//444 455//455 454//454
f 444//444 445//445 456//456 455//455
f 445//445 446//446 457//457 456//456
f 446//446 447//447 458//458 457//457
f 447//447 448//448 459//459 458//458
f 448//448 166//166 167//167 459//459
f 328//328 449//449 460//460 327//327
f 449//449 450//450 461//461 460//460
f 450//450 451//451 462//462 461//461
f 451//451 452//452 463//463 462//462
f 452//452 453//453 464//464 463//463
f 453//453 454//454 465//465 464//464
f 454//454 455//455 466//466 465//465
f 455//455 456//456 467//467 466//466
f 456//456 457//457 468//468 467//467
f 457//457 458//458 469//469 468//468
f 458//458 459//459 470//470 469//469
f 459//459 167//167 168//168 470//470
f 327//327 460//460 471//471 326//326
f 460//460 461//461 472//472 471//471
f 461//461 462//462 473//473 472//472
f 462//462 463//463 474//474 473//473
f 463//463 464//464 475//475 474//474
f 464//464 465//465 476//476 475//475
f 465//465 466//466 477//477 476//476
f 466//466 467//467 478//478 477//477
f 467//467 468//468 479//479 478//478
f 468//468 469//469 480//480 479//479
f 469//469 470//470 481//481 480//480
f 470//470 168//168 169//169 481//481
f 170//170 482//482 493//493 171//171
f 482//482 483//483 494//494 493//493
f 483//483 484//484 495//495 494//494
f 484//484 485//485 496//496 495//495
f 485//485 486//486 497//497 496//496
f 486//486 487//487 498//498 497//497
f 487//487 488//488 499//499 498//498
f 488//488 489//489 500//500 499//499
f 489//489 490//490 501//501 500//500
f 490//490 491//491 502//502 501//501
f 491//491 492//492 503//503 502//502
f 492//492 13//13 12//12 503//503
f 171//171 493//493 504//504 172//172
f 493//493 494//494 505//505 504//504
f 494//494 495//495 506//506 505//505
f 495//495 496//496 507//507 506//506
f 496//496 497//497 508//508 507//507
f 497//497 498//498 509//509 508//508
f 498//498 499//499 510//510 509//509
f 499//499 500//500 511//511 510//510
f 500//500 501//501 512//512 511//511
f 501//501 502//502 513//513 512//512
f 502//502 503//503 514//514 513//513
f 503//503 12//12 11//11 514//514
f 172//172 504//504 515//515 173//173
f 504//504 505//505 516//516 515//515
f 505//505 506//506 517//517 516//516
f 506//506 507//507 518//518 517//517
f 507//507 508//508 519//519 518//518
f 508//508 509//509 520//520 519//519
f 509//509 510//510 521//521 520//520
f 510//510 511//511 522//522 521//521
f 511//511 512//512 523//523 522//522
f 512//512 513//513 524//524 523//523
f 513//513 514//514 525//525 524//524
f 514//514 11//11 10//10 525//525
f 173//173 515//515 526//526 174//174
f 515//515 516//516 527//527 526//526
f 516//516 517//517 528//528 527//527
f 517//517 518//518 529//529 528//528
f 518//518 519//519 530//530 529//529
f 519//519 520//520 531//531 530//530
f 520//520 521//521 532//532 531//531
f 521//521 522//522 533//533 532//532
f 522//522 523//523 534//534 533//533
f 523//523 524//524 535//535 534//534
f 524//524 525//525 536//536 535//535
f 525//525 10//10 9//9 536//536
f 174//174 526//526 537//537 175//175
f 526//526 527//527 538//538 537//537
f 527//527 528//528 539//539 538//538
f 528//528 529//529 540//540 539//539
f 529//529 530//530 541//541 540//540
f 530//530 531//531 542//542 541//541
f 531//531 532//532 543//543 542//542
f 532//532 533//533 544//544 543//543
f 533//533 534//534 545//545 544//544
f 534//534 535//535 546//546 545//545
f 535//535 536//536 547//547 546//546
f 536//536 9//9 8//8 547//547
f 175//175 537//537 548//548 176//176
f 537//537 538//538 549//549 548//548
f 538//538 539//539 550//550 549//549
f 539//539 540//540 551//551 550//550
f 540//540 541//541 552//552 551//551
f 541//541 542//542 553//553 552//552
f 542//542 543//543 554//554 553//553
f 543//543 544//544 555//555 554//554
f 544//544 545//545 556//556 555//555
f 545//545 546//546 557//557 556//556
f 546//546 547//547 558//558 557//557
f 547//547 8//8 7//7 558//558
f 176//176 548//548 559//559 177//177
f 548//548 549//549 560//560 559//559
f 549//549 550//550 561//561 560//560
f 550//550 551//551 562//562 561//561
f 551//551 552//552 563//563 562//562
f 552//552 553//553 564//564 563//563
f 553//553 554//554 565//565 564//564
f 554//554 555//555 566//566 565//565
f 555//555 556//556 567//567 566//566
f 556//556 557//557 568//568 567//567
f 557//557 558//558 569//569 568//568
f 558//558 7//7 6//6 569//569
f 177//177 559//559 570//570 178//178
f 559//559 560//560 571//571 570//570
f 560//560 561//561 572//572 571//571
f 561//561 562//562 573//573 572//572
f 562//562 563//563 574//574 573//573
f 563//563 564//564 575//575 574//574
f 564//564 565//565 576//576 575//575
f 565//565 566//566 577//577 576//576
f 566//566 567//567 578//578 577//577
f 567//567 568//568 579//579 578//578
f 568//568 569//569 580//580 579//579
f 569//569 6//6 5//5 580//580
f 178//178 570//570 581//581 179//179
f 570//570 571//571 582//582 581//581
f 571//571 572//572 583//583 582//582
f 572//572 573//573 584//584 583//583
f 573//573 574//574 585//585 584//584
f 574//574 575//575 586//586 585//585
f 575//575 576//576 587//587 586//586
f 576//576 577//577 588//588 587//587
f 577//577 578//578 589//589 588//588
f 578//578 579//579 590//590 589//589
f 579//579 580//580 591//591 590//590
f 580//580 5//5 4//4 591//591
f 179//179 581//581 592//592 180//180
f 581//581 582//582 593//593 592//592
f 582//582 583//583 594//594 593//593
f 583//583 584//584 595//595 594//594
f 584//584 585//585 596//596 595//595
f 585//585 586//586 597//597 596//596
f 586//586 587//587 598//598 597//597
f 587//587 588//588 599//599 598//598
f 588//588 589//589 600//600 599//599
f 589//589 590//590 601//601 600//600
f 590//590 591//591 602//602 601//601
f 591//591 4//4 3//3 602//602
f 180//180 592//592 603//603 181//181
f 592//592 593//593 604//604 603//603
f 593//593 594//594 605//605 604//604
f 594//594 595//595 606//606 605//605
f 595//595 596//596 607//607 606//606
f 596//596 597//597 608//608 607//607
f 597//597 598//598 609//609 608//608
f 598//598 599//599 610//610 609//609
f 599//599 600//600 611//611 610//610
f 600//600 601//601 612//612 611//611
f 601//601 602//602 613//613 612//612
f 602//602 3//3 2//2 613//613
f 181//181 603//603 614//614 182//182
f 603//603 604//604 615//615 614//614
f 604//604 605//605 616//616 615//615
f 605//605 606//606 617//617 616//616
f 606//606 607//607 618//618 617//617
f 607//607 608//608 619//619 618//618
f 608//608 609//609 620//620 619//619
f 609//609 610//610 621//621 620//620
f 610//610 611//611 622//622 621//621
f 611//611 612//612 623//623 622//622
f 612//612 613//613 624//624 623//623
f 613//613 2//2 1//1 624//624
f 182//182 614//614 625//625 195//195
f 614//614 615//615 626//626 625//625
f 615//615 616//616 627//627 626//626
f 616//616 617//617 628//628 627//627
f 617//617 618//618 629//629 628//628
f 618//618 619//619 630//630 629//629
f 619//619 620//620 631//631 630//630
f 620//620 621//621 632//632 631//631
f 621//621 622//622 633//633 632//632
f 622//622 623//623 634//634 633//633
f 623//623 624//624 635//635 634//634
f 624//624 1//1 14//14 635//635
f 195//195 625//625 636//636 208//208
f 625//625 626//626 637//637 636//636
f 626//626 627//627 638//638 637//637
f 627//627 628//628 639//639 638//638
f 628//628 629//629 640//640 639//639
f 629//629 630//630 641//641 640//640
f 630//630 631//631 642//642 641//641
f 631//631 632//632 643//643 642//642
f 632//632 633//633 644//644 643//643
f 633//633 634//634 645//645 644//644
f 634//634 635//635 646//646 645//645
f 635//635 14//14 27//27 646//646
f 208//208 636//636 647//647 221//221
f 636//636 637//637 648//648 647//647
f 637//637 638//638 649//649 648//648
f 638//638 639//639 650//650 649//649
f 639//639 640//640 651//651 650//650
f 640//640 641//641 652//652 651//651
f 641//641 642//642 653//653 652//652
f 642//642 643//643 654//654 653//653
f 643//643 644//644 655//655 654//654
f 644//644 645//645 656//656 655//655
f 645//645 646//646 657//657 656//656
f 646//646 27//27 40//40 657//657
f 221//221 647//647 658//658 234//234
f 647//647 648//648 659//659 658//658
f 648//648 649//649 660//660 659//659
f 649//649 650//650 661//661 660//660
f 650//650 651//651 662//662 661//661
f 651//651 652//652 663//663 662//662
f 652//652 653//653 664//664 663//663
f 653//653 654//654 665//665 664//664
f 654//654 655//655 666//666 665//665
f 655//655 656//656 667//667 666//666
f 656//656 657//657 668//668 667//667
f 657//657 40//40 53//53 668//668
f 234//234 658//658 669//669 247//247
f 658//658 659//659 670//670 669//669
f 659//659 660//660 671//671 670//670
f 660//660 661//661 672//672 671//671
f 661//661 662//662 673//673 672//672
f 662//662 663//663 674//674 673//673
f 663//663 664//664 675//675 674//674
f 664//664 665//665 676//676 675//675
f 665//665 666//666 677//677 676//676
f 666//666 667//667 678//678 677//677
f 667//667 668//668 679//679 678//678
f 668//668 53//53 66//66 679//679
f 247//247 669//669 680//680 260//260
f 669//669 670//670 681//681 680//680
f 670//670 671//671 682//682 681//681
f 671//671 672//672 683//683 682//682
f 672//672 673//673 684//684 683//683
f 673//673 674//674 685//685 684//684
f 674//674 675//675 686//686 685//685
f 675//675 676//676 687//687 686//686
f 676//676 677//677 688//688 687//687
f 677//677 678//678 689//689 688//688
f 678//678 679//679 690//690 689//689
f 679//679 66//66 79//79 690//690
f 260//260 680//680 691//691 273//273
f 680//680 681//681 692//692 691//691
f 681//681 682//682 693//693 692//692
f 682//682 683//683 694//694 693//693
f 683//683 684//684 695//695 694//694
f 684//684 685//685 696//696 695//695
f 685//685 686//686 697//697 696//696
f 686//686 687//687 698//698 697//697
f 687//687 688//688 699//699 698//698
f 688//688 689//689 700//700 699//699
f 689//689 690//690 701//701 700//700
f 690//690 79//79 92//92 701//701
f 273//273 691//691 702//702 286//286
f 691//691 692//692 703//703 702//702
f 692//692 693//693 704//704 703//703
f 693//693 694//694 705//705 704//704
f 694//694 695//695 706//706 705//705
f 695//695 696//696 707//707 706//706
f 696//696 697//697 708//708 707//707
f 697//697 698//698 709//709 708//708
f 698//698 699//699 710//710 709//709
f 699//699 700//700 711//711 710//710
f 700//700 701//701 712//712 711//711
f 701//701 92//92 105//105 712//712
f 286//286 702//702 713//713 299//299
f 702//702 703//703 714//714 713//713
f 703//703 704//704 715//715 714//714
f 704//704 705//705 716//716 715//715
f 705//705 706//706 717//717 716//716
f 706//706 707//707 718//718 717//717
f 707//707 708//708 719//719 718//718
f 708//708 709//709 720//720 719//719
f 709//709 710//710 721//721 720//720
f 710//710 711//711 722//722 721//721
f 711//711 712//712 723//723 722//722
f 712//712 105//105 118//118 723//723
f 299//299 713//713 724//724 312//312
f 713//713 714//714 725//725 724//724
f 714//714 715//715 726//726 725//725
f 715//715 716//716 727//727 726//726
f 716//716 717//717 728//728 727//727
f 717//717 718//718 729//729 728//728
f 718//718 719//719 730//730 729//729
f 719//719 720//720 731//731 730//730
f 720//720 721//721 732//732 731//731
f 721//721 722//722 733//733 732//732
f 722//722 723//723 734//734 733//733
f 723//723 118//118 131//131 734//734
f 312//312 724//724 735//735 325//325
f 724//724 725//725 736//736 735//735
f 725//725 726//726 737//737 736//736
f 726//726 727//727 738//738 737//737
f 727//727 728//728 739//739 738//738
f 728//728 729//729 740//740 739//739
f 729//729 730//730 741//741 740//740
f 730//730 731//731 742//742 741//741
f 731//731 732//732 743//743 742//742
f 732//732 733//733 744//744 743//743
f 733//733 734//734 745//745 744//744
f 734//734 131//131 144//144 745//745
f 325//325 735//735 339//339 338//338
f 735//735 736//736 340//340 339//339
f 736//736 737//737 341//341 340//340
f 737//737 738//738 342//342 341//341
f 738//738 739//739 343//343 342//342
f 739//739 740//740 344//344 343//343
f 740//740 741//741 345//345 344//344
f 741//741 742//742 346//346 345//345
f 742//742 743//743 347//347 346//346
f 743//743 744//744 348//348 347//347
f 744//744 745//745 349//349 348//348
f 745//745 144//144 157//157 349//349
f 13//13 492//492 746//746 26//26
f 492//492 491//491 747//747 746//746
f 491//491 490//490 748//748 747//747
f 490//490 489//489 749//749 748//748
f 489//489 488//488 750//750 749//749
f 488//488 487//487 751//751 750//750
f 487//487 486//486 752//752 751//751
f 486//486 485//485 753//753 752//752
f 485//485 484//484 754//754 753//753
f 484//484 483//483 755//755 754//754
f 483//483 482//482 756//756 755//755
f 482//482 170//170 183//183 756//756
f 26//26 746//746 757//757 39//39
f 746//746 747//747 758//758 757//757
f 747//747 748//748 759//759 758//758
f 748//748 749//749 760//760 759//759
f 749//749 750//750 761//761 760//760
f 750//750 751//751 762//762 761//761
f 751//751 752//752 763//763 762//762
f 752//752 753//753 764//764 763//763
f 753//753 754//754 765//765 764//764
f 754//754 755//755 766//766 765//765
f 755//755 756//756 767//767 766//766
f 756//756 183//183 196//196 767//767
f 39//39 757//757 768//768 52//52
f 757//757 758//758 769//769 768//768
f 758//758 759//759 770//770 769//769
f 759//759 760//760 771//771 770//770
f 760//760 761//761 772//772 771//771
f 761//761 762//762 773//773 772//772
f 762//762 763//763 774//774 773//773
f 763//763 764//764 775//775 774//774
f 764//764 765//765 776//776 775//775
f 765//765 766//766 777//777 776//776
f 766//766 767//767 778//778 777//777
f 767//767 196//196 209//209 778//778
f 52//52 768//768 779//779 65//65
f 768//768 769//769 780//780 779//779
f 769//769 770//770 781//781 780//780
f 770//770 771//771 782//782 781//781
f 771//771 772//772 783//783 782//782
f 772//772 773//773 784//784 783//783
f 773//773 774//774 785//785 784//784
f 774//774 775//775 786//786 785//785
f 775//775 776//776 787//787 786//786
f 776//776 777//777 788//788 787//787
f 777//777 778//778 789//789 788//788
f 778//778 209//209 222//222 789//789
f 65//65 779//779 790//790 78//78
f 779//779 780//780 791//791 790//790
f 780//780 781//781 792//792 791//791
f 781//781 782//782 793//793 792//792
f 782//782 783//783 794//794 793//793
f 783//783 784//784 795//795 794//794
f 784//784 785//785 796//796 795//795
f 785//785 786//786 797//797 796//796
f 786//786 787//787 798//798 797//797
f 787//787 788//788 799//799 798//798
f 788//788 789//789 800//800 799//799
f 789//789 222//222 235//235 800//800
f 78//78 790//790 801//801 91//91
f 790//790 791//791 802//802 801//801
f 791//791 792//792 803//803 802//802
f 792//792 793//793 804//804 803//803
f 793//793 794//794 805//805 804//804
f 794//794 795//795 806//806 805//805
f 795//795 796//796 807//807 806//806
f 796//796 797//797 808//808 807//807
f 797//797 798//798 809//809 808//808
f 798//798 799//799 810//810 809//809
f 799//799 800//800 811//811 810//810
f 800//800 235//235 248//248 811//811
f 91//91 801//801 812//812 104//104
f 801//801 802//802 813//813 812//812
f 802//802 803//803 814//814 813//813
f 803//803 804//804 815//815 814//814
f 804//804 805//805 816//816 815//815
f 805//805 806//806 817//817 816//816
f 806//806 807//807 818//818 817//817
f 807//807 808//808 819//819 818//818
f 808//808 809//809 820//820 819//819
f 809//809 810//810 821//821 820//820
f 810//810 811//811 822//822 821//821
f 811//811 248//248 261//261 822//822
f 104//104 812//812 823//823 117//117
f 812//812 813//813 824//824 823//823
f 813//813 814//814 825//825 824//824
f 814//814 815//815 826//826 825//825
f 815//815 816//816 827//827 826//826
f 816//816 817//817 828//828 827//827
f 817//817 818//818 829//829 828//828
f 818//818 819//819 830//830 829//829
f 819//819 820//820 831//831 830//830
f 820//820 821//821 832//832 831//831
f 821//821 822//822 833//833 832//832
f 822//822 261//261 274//274 833//833
f 117//117 823//823 834//834 130//130
f 823//823 824//824 835//835 834//834
f 824//824 825//825 836//836 835//835
f 825//825 826//826 837//837 836//836
f 826//826 827//827 838//838 837//837
f 827//827 828//828 839//839 838//838
f 828//828 829//829 840//840 839//839
f 829//829 830//830 841//841 840//840
f 830//830 831//831 842//842 841//841
f 831//831 832//832 843//843 842//842
f 832//832 833//833 844//844 843//843
f 833//833 274//274 287//287 844//844
f 130//130 834//834 845//845 143//143
f 834//834 835//835 846//846 845//845
f 835//835 836//836 847//847 846//846
f 836//836 837//837 848//848 847//847
f 837//837 838//838 849//849 848//848
f 838//838 839//839 850//850 849//849
f 839//839 840//840 851//851 850//850
f 840//840 841//841 852//852 851//851
f 841//841 842//842 853//853 852//852
f 842//842 843//843 854//854 853//853
f 843//843 844//844 855//855 854//854
f 844//844 287//287 300//300 855//855
f 143//143 845//845 856//856 156//156
f 845//845 846//846 857//857 856//856
f 846//846 847//847 858//858 857//857
f 847//847 848//848 859//859 858//858
f 848//848 849//849 860//860 859//859
f 849//849 850//850 861//861 860//860
f 850//850 851//851 862//862 861//861
f 851//851 852//852 863//863 862//862
f 852//852 853//853 864//864 863//863
f 853//853 854//854 865//865 864//864
f 854//854 855//855 866//866 865//865
f 855//855 300//300 313//313 866//866
f 156//156 856//856 481//481 169//169
f 856//856 857//857 480//480 481//481
f 857//857 858//858 479//479 480//480
f 858//858 859//859 478//478 479//479
f 859//859 860//860 477//477 478//478
f 860//860 861//861 476//476 477//477
f 861//861 862//862 475//475 476//476
f 862//862 863//863 474//474 475//475
f 863//863 864//864 473//473 474//474
f 864//864 865//865 472//472 473//473
f 865//865 866//866 471//471 472//472
f 866//866 313//313 326//326 471//471
